<?xml version="1.0" encoding="UTF-8" standalone="no"?>
<!DOCTYPE svg PUBLIC "-//W3C//DTD SVG 1.1//EN" "http://www.w3.org/Graphics/SVG/1.1/DTD/svg11.dtd">
<!-- Generated by Microsoft Visio, SVG Export A64.sri_operation_shift_by_3.svg Page-1 -->
<svg xmlns="http://www.w3.org/2000/svg" xmlns:xlink="http://www.w3.org/1999/xlink" xmlns:ev="http://www.w3.org/2001/xml-events"
		xmlns:v="http://schemas.microsoft.com/visio/2003/SVGExtensions/" width="4.73172in" height="1.81165in"
		viewBox="0 0 340.684 130.439" xml:space="preserve" color-interpolation-filters="sRGB" class="st14">
	<v:documentProperties v:langID="2057"/>

	<style type="text/css">
	<![CDATA[
		.st1 {marker-end:url(#mrkr4-6);stroke:#000000;stroke-linecap:butt;stroke-width:0.500001}
		.st2 {fill:#000000;fill-opacity:1;stroke:#000000;stroke-opacity:1;stroke-width:0.21739154405937}
		.st3 {fill:none;stroke:none;stroke-linecap:butt;stroke-width:0.500001}
		.st4 {fill:#000000;font-family:Arial;font-size:0.75em}
		.st5 {fill:#ffffff;stroke:none;stroke-linecap:round;stroke-linejoin:round;stroke-width:0.0169691}
		.st6 {fill:#000000;font-family:Arial;font-size:0.666664em}
		.st7 {fill:none}
		.st8 {stroke:#000000;stroke-linecap:butt;stroke-width:0.800001}
		.st9 {stroke:#000000;stroke-dasharray:0.25,1;stroke-linecap:butt;stroke-width:0.25}
		.st10 {fill:#ffffff;stroke:none;stroke-linecap:butt;stroke-width:0.500001}
		.st11 {stroke:#000000;stroke-linecap:butt;stroke-width:0.500001}
		.st12 {fill:#ffffff;stroke:none;stroke-width:1;visibility:hidden}
		.st13 {fill:none;stroke:#000000;stroke-linecap:butt;stroke-width:0.800001}
		.st14 {fill:none;fill-rule:evenodd;font-size:12px;overflow:visible;stroke-linecap:square;stroke-miterlimit:3}
	]]>
	</style>

	<defs id="Markers">
		<g id="lend4">
			<path d="M 2 1 L 0 0 L 2 -1 L 2 1 " style="stroke:none"/>
		</g>
		<marker id="mrkr4-6" class="st2" v:arrowType="4" v:arrowSize="1" v:setback="9.19999" refX="-9.1999898554186" orient="auto"
				markerUnits="strokeWidth" overflow="visible">
			<use xlink:href="#lend4" transform="scale(-4.5999949277093,-4.5999949277093) "/>
		</marker>
	</defs>
	<g v:mID="0" v:index="1" v:groupContext="foregroundPage">
		<title>Page-1</title>
		<v:pageProperties v:drawingScale="0.0393701" v:pageScale="0.0393701" v:drawingUnits="24" v:shadowOffsetX="0"
				v:shadowOffsetY="0" v:shadowType="1" v:shadowScale="0"/>
		<g id="shape1-1" v:mID="1" v:groupContext="shape" transform="translate(252.701,-88.5541) rotate(30.6689)">
			<title>Signal 2.93</title>
			<path d="M0 130.44 L66.26 130.44 L66.26 130.44" class="st1"/>
		</g>
		<g id="shape2-7" v:mID="2" v:groupContext="shape" transform="translate(6.1293,114.344) rotate(-90)">
			<title>Signal 2.42</title>
			<path d="M0 130.44 L35.09 130.44 L35.09 130.44" class="st1"/>
		</g>
		<g id="shape3-12" v:mID="3" v:groupContext="shape" transform="translate(28.8065,114.344) rotate(-90)">
			<title>Signal 2.5</title>
			<path d="M0 130.44 L35.09 130.44 L35.09 130.44" class="st1"/>
		</g>
		<g id="shape4-17" v:mID="4" v:groupContext="shape" transform="translate(210.052,-87.7806) rotate(31.3287)">
			<title>Signal 2.25</title>
			<path d="M0 130.44 L65.09 130.44 L65.09 130.44" class="st1"/>
		</g>
		<g id="shape5-22" v:mID="5" v:groupContext="shape" transform="translate(275.378,-88.5541) rotate(30.6689)">
			<title>Signal 2.38</title>
			<path d="M0 130.44 L66.26 130.44 L66.26 130.44" class="st1"/>
		</g>
		<g id="shape6-27" v:mID="6" v:groupContext="shape" transform="translate(232.602,-87.8574) rotate(31.2637)">
			<title>Signal 2.24</title>
			<path d="M0 130.44 L65.04 130.44 L65.04 130.44" class="st1"/>
		</g>
		<g id="shape7-32" v:mID="7" v:groupContext="shape" transform="translate(187.374,-87.7806) rotate(31.3287)">
			<title>Signal 2.30</title>
			<path d="M0 130.44 L65.09 130.44 L65.09 130.44" class="st1"/>
		</g>
		<g id="shape8-37" v:mID="8" v:groupContext="shape" transform="translate(-15.6306,114.344) rotate(-90)">
			<title>Signal 2.8</title>
			<path d="M0 130.44 L35.09 130.44 L35.09 130.44" class="st1"/>
		</g>
		<g id="shape9-42" v:mID="9" v:groupContext="shape" transform="translate(6.1693,-57.1179)">
			<title>Sheet.9</title>
			<desc>Vd.B[7] after operation</desc>
			<v:userDefs/>
			<v:textBlock v:margins="rect(1,1,1,1)" v:tabSpace="42.5198"/>
			<v:textRect cx="49.6064" cy="125.439" width="99.23" height="10"/>
			<rect x="0" y="120.439" width="99.2127" height="10" class="st3"/>
			<text x="4.58" y="128.14" class="st4" v:langID="1033"><v:paragraph v:horizAlign="1"/><v:tabList/>Vd.B[7] after operation</text>		</g>
		<g id="shape10-45" v:mID="10" v:groupContext="shape" transform="translate(0.500001,-3.25957)">
			<title>Sheet.10</title>
			<desc>Vd.B[7] before operation</desc>
			<v:userDefs/>
			<v:textBlock v:margins="rect(1,1,1,1)" v:tabSpace="42.5198"/>
			<v:textRect cx="50.5651" cy="125.439" width="101.14" height="10"/>
			<rect x="0" y="120.439" width="101.13" height="10" class="st3"/>
			<text x="1.78" y="128.14" class="st4" v:langID="1033"><v:paragraph v:horizAlign="1"/><v:tabList/>Vd.B[7] before operation</text>		</g>
		<g id="shape11-48" v:mID="11" v:groupContext="shape" transform="translate(66.6143,-108.85)">
			<title>Sheet.11</title>
			<desc>Vn.B[7]</desc>
			<v:userDefs/>
			<v:textBlock v:margins="rect(1,1,1,1)" v:tabSpace="42.5198"/>
			<v:textRect cx="17.9665" cy="125.439" width="35.95" height="10"/>
			<rect x="0" y="120.439" width="35.9332" height="10" class="st3"/>
			<text x="3.21" y="128.14" class="st4" v:langID="1033"><v:paragraph v:horizAlign="1"/><v:tabList/>Vn.B[7]</text>		</g>
		<g id="shape12-51" v:mID="12" v:groupContext="shape" transform="translate(102.547,-107.512)">
			<title>Sheet.12</title>
			<rect x="0" y="119.1" width="22.6772" height="11.3386" class="st5"/>
		</g>
		<g id="shape13-53" v:mID="13" v:groupContext="shape" transform="translate(102.521,-118.85)">
			<title>Sheet.13</title>
			<desc>63</desc>
			<v:userDefs/>
			<v:textBlock v:margins="rect(0,0,0,0)" v:tabSpace="42.5198"/>
			<v:textRect cx="5.69501" cy="124.77" width="11.4" height="11.3386"/>
			<text x="1.25" y="127.17" class="st6" v:langID="1033"><v:paragraph v:horizAlign="1"/><v:tabList/>63</text>		</g>
		<g id="shape14-55" v:mID="14" v:groupContext="shape" transform="translate(272.601,-118.85)">
			<title>Sheet.14</title>
			<desc>56</desc>
			<v:userDefs/>
			<v:textBlock v:margins="rect(0,0,0,0)" v:tabSpace="42.5198"/>
			<v:textRect cx="5.69501" cy="124.77" width="11.4" height="11.3386"/>
			<text x="1.25" y="127.17" class="st6" v:langID="1033"><v:paragraph v:horizAlign="1"/><v:tabList/>56</text>		</g>
		<g id="shape15-57" v:mID="15" v:groupContext="shape" transform="translate(283.94,-118.85)">
			<title>Sheet.15</title>
			<desc>55</desc>
			<v:userDefs/>
			<v:textBlock v:margins="rect(0,0,0,0)" v:tabSpace="42.5198"/>
			<v:textRect cx="5.69501" cy="124.77" width="11.4" height="11.3386"/>
			<text x="1.25" y="127.17" class="st6" v:langID="1033"><v:paragraph v:horizAlign="1"/><v:tabList/>55</text>		</g>
		<g id="shape16-59" v:mID="16" v:groupContext="shape" transform="translate(125.224,-107.512)">
			<title>Sheet.16</title>
			<rect x="0" y="119.1" width="215.433" height="11.3386" class="st5"/>
		</g>
		<g id="shape17-61" v:mID="17" v:groupContext="shape" transform="translate(125.224,-107.507)">
			<title>Sheet.17</title>
			<path d="M0 119.1 L0 130.44 L0 119.1 Z" class="st7"/>
			<path d="M0 119.1 L0 130.44" class="st8"/>
		</g>
		<g id="shape18-64" v:mID="18" v:groupContext="shape" transform="translate(193.256,-107.507)">
			<title>Sheet.18</title>
			<path d="M0 119.1 L0 130.44 L0 119.1 Z" class="st7"/>
			<path d="M0 119.1 L0 130.44" class="st8"/>
		</g>
		<g id="shape19-67" v:mID="19" v:groupContext="shape" transform="translate(468.257,0.25) rotate(90)">
			<title>Signal 0.121</title>
			<path d="M0 130.44 L11.34 130.44 L0 130.44 Z" class="st7"/>
			<path d="M0 130.44 L11.34 130.44" class="st9"/>
		</g>
		<g id="shape20-70" v:mID="20" v:groupContext="shape" transform="translate(414.399,0.25) rotate(90)">
			<title>Signal 0.123</title>
			<path d="M0 130.44 L11.34 130.44 L0 130.44 Z" class="st7"/>
			<path d="M0 130.44 L11.34 130.44" class="st9"/>
		</g>
		<g id="shape21-73" v:mID="21" v:groupContext="shape" transform="translate(232.981,0.25) rotate(90)">
			<title>Signal 0.125</title>
			<path d="M0 130.44 L11.34 130.44 L0 130.44 Z" class="st7"/>
			<path d="M0 130.44 L11.34 130.44" class="st9"/>
		</g>
		<g id="group22-76" transform="translate(307.629,-115.872)" v:mID="22" v:groupContext="group">
			<title>Disconnect.22</title>
			<g id="shape23-77" v:mID="23" v:groupContext="shape" transform="translate(0.997182,-0.143108)">
				<title>Sheet.23</title>
				<rect x="0" y="124.77" width="1.88976" height="5.6693" class="st10"/>
			</g>
			<g id="shape24-79" v:mID="24" v:groupContext="shape" transform="translate(131.498,145.999) rotate(99.4623)">
				<title>Sheet.24</title>
				<path d="M0 130 C0.15 130.21 0.72 130.38 1.15 130.41 C1.58 130.44 1.86 130.34 2.34 130.1 C2.63 129.96 2.98 129.77
							 3.29 129.65 C4.56 129.15 5.03 129.7 5.75 130 L0 130 Z" class="st7"/>
				<path d="M0 130 C0.15 130.21 0.72 130.38 1.15 130.41 C1.58 130.44 1.86 130.34 2.34 130.1 C2.63 129.96 2.98 129.77
							 3.29 129.65 C4.56 129.15 5.03 129.7 5.75 130" class="st11"/>
			</g>
			<g id="shape25-82" v:mID="25" v:groupContext="shape" transform="translate(129.609,145.999) rotate(99.4623)">
				<title>Sheet.25</title>
				<path d="M0 130 C0.15 130.21 0.72 130.38 1.15 130.41 C1.58 130.44 1.86 130.34 2.34 130.1 C2.63 129.96 2.98 129.77
							 3.29 129.65 C4.56 129.15 5.03 129.7 5.75 130 L0 130 Z" class="st7"/>
				<path d="M0 130 C0.15 130.21 0.72 130.38 1.15 130.41 C1.58 130.44 1.86 130.34 2.34 130.1 C2.63 129.96 2.98 129.77
							 3.29 129.65 C4.56 129.15 5.03 129.7 5.75 130" class="st11"/>
			</g>
		</g>
		<g id="group26-85" transform="translate(307.629,-104.533)" v:mID="26" v:groupContext="group">
			<title>Disconnect.51</title>
			<g id="shape27-86" v:mID="27" v:groupContext="shape" transform="translate(0.997182,-0.143108)">
				<title>Sheet.27</title>
				<rect x="0" y="124.77" width="1.88976" height="5.6693" class="st10"/>
			</g>
			<g id="shape28-88" v:mID="28" v:groupContext="shape" transform="translate(131.498,145.999) rotate(99.4623)">
				<title>Sheet.28</title>
				<path d="M0 130 C0.15 130.21 0.72 130.38 1.15 130.41 C1.58 130.44 1.86 130.34 2.34 130.1 C2.63 129.96 2.98 129.77
							 3.29 129.65 C4.56 129.15 5.03 129.7 5.75 130 L0 130 Z" class="st7"/>
				<path d="M0 130 C0.15 130.21 0.72 130.38 1.15 130.41 C1.58 130.44 1.86 130.34 2.34 130.1 C2.63 129.96 2.98 129.77
							 3.29 129.65 C4.56 129.15 5.03 129.7 5.75 130" class="st11"/>
			</g>
			<g id="shape29-91" v:mID="29" v:groupContext="shape" transform="translate(129.609,145.999) rotate(99.4623)">
				<title>Sheet.29</title>
				<path d="M0 130 C0.15 130.21 0.72 130.38 1.15 130.41 C1.58 130.44 1.86 130.34 2.34 130.1 C2.63 129.96 2.98 129.77
							 3.29 129.65 C4.56 129.15 5.03 129.7 5.75 130 L0 130 Z" class="st7"/>
				<path d="M0 130 C0.15 130.21 0.72 130.38 1.15 130.41 C1.58 130.44 1.86 130.34 2.34 130.1 C2.63 129.96 2.98 129.77
							 3.29 129.65 C4.56 129.15 5.03 129.7 5.75 130" class="st11"/>
			</g>
		</g>
		<g id="group30-94" transform="translate(102.547,-107.512)" v:mID="30" v:groupContext="group">
			<title>Sheet.30</title>
			<g id="shape31-95" v:mID="31" v:groupContext="shape">
				<title>Sheet.31</title>
				<rect x="0" y="119.1" width="235.276" height="11.3386" class="st12"/>
			</g>
			<g id="shape32-97" v:mID="32" v:groupContext="shape">
				<title>Sheet.32</title>
				<rect x="0" y="119.1" width="235.276" height="11.3386" class="st13"/>
			</g>
		</g>
		<g id="shape33-99" v:mID="33" v:groupContext="shape" transform="translate(147.902,-107.507)">
			<title>Sheet.33</title>
			<path d="M0 119.1 L0 130.44 L0 119.1 Z" class="st7"/>
			<path d="M0 119.1 L0 130.44" class="st8"/>
		</g>
		<g id="shape34-102" v:mID="34" v:groupContext="shape" transform="translate(170.579,-107.507)">
			<title>Sheet.34</title>
			<path d="M0 119.1 L0 130.44 L0 119.1 Z" class="st7"/>
			<path d="M0 119.1 L0 130.44" class="st8"/>
		</g>
		<g id="shape35-105" v:mID="35" v:groupContext="shape" transform="translate(329.294,-118.85)">
			<title>Sheet.35</title>
			<desc>0</desc>
			<v:userDefs/>
			<v:textBlock v:margins="rect(0,0,0,0)" v:tabSpace="42.5198"/>
			<v:textRect cx="5.69501" cy="124.77" width="11.4" height="11.3386"/>
			<text x="3.47" y="127.17" class="st6" v:langID="1033"><v:paragraph v:horizAlign="1"/><v:tabList/>0</text>		</g>
		<g id="shape36-107" v:mID="36" v:groupContext="shape" transform="translate(215.933,-107.507)">
			<title>Sheet.36</title>
			<path d="M0 119.1 L0 130.44 L0 119.1 Z" class="st7"/>
			<path d="M0 119.1 L0 130.44" class="st8"/>
		</g>
		<g id="shape37-110" v:mID="37" v:groupContext="shape" transform="translate(238.61,-107.507)">
			<title>Sheet.37</title>
			<path d="M0 119.1 L0 130.44 L0 119.1 Z" class="st7"/>
			<path d="M0 119.1 L0 130.44" class="st8"/>
		</g>
		<g id="shape38-113" v:mID="38" v:groupContext="shape" transform="translate(261.287,-107.507)">
			<title>Sheet.38</title>
			<path d="M0 119.1 L0 130.44 L0 119.1 Z" class="st7"/>
			<path d="M0 119.1 L0 130.44" class="st8"/>
		</g>
		<g id="shape39-116" v:mID="39" v:groupContext="shape" transform="translate(283.965,-107.507)">
			<title>Sheet.39</title>
			<path d="M0 119.1 L0 130.44 L0 119.1 Z" class="st7"/>
			<path d="M0 119.1 L0 130.44" class="st8"/>
		</g>
		<g id="shape40-119" v:mID="40" v:groupContext="shape" transform="translate(102.547,-56.4884)">
			<title>Sheet.40</title>
			<rect x="0" y="119.1" width="22.6772" height="11.3386" class="st5"/>
		</g>
		<g id="shape41-121" v:mID="41" v:groupContext="shape" transform="translate(102.521,-67.8263)">
			<title>Sheet.41</title>
			<desc>63</desc>
			<v:userDefs/>
			<v:textBlock v:margins="rect(0,0,0,0)" v:tabSpace="42.5198"/>
			<v:textRect cx="5.69501" cy="124.77" width="11.4" height="11.3386"/>
			<text x="1.25" y="127.17" class="st6" v:langID="1033"><v:paragraph v:horizAlign="1"/><v:tabList/>63</text>		</g>
		<g id="shape42-123" v:mID="42" v:groupContext="shape" transform="translate(272.601,-67.8263)">
			<title>Sheet.42</title>
			<desc>56</desc>
			<v:userDefs/>
			<v:textBlock v:margins="rect(0,0,0,0)" v:tabSpace="42.5198"/>
			<v:textRect cx="5.69501" cy="124.77" width="11.4" height="11.3386"/>
			<text x="1.25" y="127.17" class="st6" v:langID="1033"><v:paragraph v:horizAlign="1"/><v:tabList/>56</text>		</g>
		<g id="shape43-125" v:mID="43" v:groupContext="shape" transform="translate(283.94,-67.8263)">
			<title>Sheet.43</title>
			<desc>55</desc>
			<v:userDefs/>
			<v:textBlock v:margins="rect(0,0,0,0)" v:tabSpace="42.5198"/>
			<v:textRect cx="5.69501" cy="124.77" width="11.4" height="11.3386"/>
			<text x="1.25" y="127.17" class="st6" v:langID="1033"><v:paragraph v:horizAlign="1"/><v:tabList/>55</text>		</g>
		<g id="shape44-127" v:mID="44" v:groupContext="shape" transform="translate(125.224,-56.4884)">
			<title>Sheet.44</title>
			<rect x="0" y="119.1" width="215.433" height="11.3386" class="st5"/>
		</g>
		<g id="shape45-129" v:mID="45" v:groupContext="shape" transform="translate(125.224,-56.483)">
			<title>Sheet.45</title>
			<path d="M0 119.1 L0 130.44 L0 119.1 Z" class="st7"/>
			<path d="M0 119.1 L0 130.44" class="st8"/>
		</g>
		<g id="shape46-132" v:mID="46" v:groupContext="shape" transform="translate(193.256,-56.483)">
			<title>Sheet.46</title>
			<path d="M0 119.1 L0 130.44 L0 119.1 Z" class="st7"/>
			<path d="M0 119.1 L0 130.44" class="st8"/>
		</g>
		<g id="shape47-135" v:mID="47" v:groupContext="shape" transform="translate(468.257,51.2737) rotate(90)">
			<title>Signal 0.80</title>
			<path d="M0 130.44 L11.34 130.44 L0 130.44 Z" class="st7"/>
			<path d="M0 130.44 L11.34 130.44" class="st9"/>
		</g>
		<g id="shape48-138" v:mID="48" v:groupContext="shape" transform="translate(414.399,51.2737) rotate(90)">
			<title>Signal 0.81</title>
			<path d="M0 130.44 L11.34 130.44 L0 130.44 Z" class="st7"/>
			<path d="M0 130.44 L11.34 130.44" class="st9"/>
		</g>
		<g id="shape49-141" v:mID="49" v:groupContext="shape" transform="translate(232.981,51.2737) rotate(90)">
			<title>Signal 0.82</title>
			<path d="M0 130.44 L11.34 130.44 L0 130.44 Z" class="st7"/>
			<path d="M0 130.44 L11.34 130.44" class="st9"/>
		</g>
		<g id="group50-144" transform="translate(307.629,-64.8485)" v:mID="50" v:groupContext="group">
			<title>Disconnect.50</title>
			<g id="shape51-145" v:mID="51" v:groupContext="shape" transform="translate(0.997182,-0.143108)">
				<title>Sheet.51</title>
				<rect x="0" y="124.77" width="1.88976" height="5.6693" class="st10"/>
			</g>
			<g id="shape52-147" v:mID="52" v:groupContext="shape" transform="translate(131.498,145.999) rotate(99.4623)">
				<title>Sheet.52</title>
				<path d="M0 130 C0.15 130.21 0.72 130.38 1.15 130.41 C1.58 130.44 1.86 130.34 2.34 130.1 C2.63 129.96 2.98 129.77
							 3.29 129.65 C4.56 129.15 5.03 129.7 5.75 130 L0 130 Z" class="st7"/>
				<path d="M0 130 C0.15 130.21 0.72 130.38 1.15 130.41 C1.58 130.44 1.86 130.34 2.34 130.1 C2.63 129.96 2.98 129.77
							 3.29 129.65 C4.56 129.15 5.03 129.7 5.75 130" class="st11"/>
			</g>
			<g id="shape53-150" v:mID="53" v:groupContext="shape" transform="translate(129.609,145.999) rotate(99.4623)">
				<title>Sheet.53</title>
				<path d="M0 130 C0.15 130.21 0.72 130.38 1.15 130.41 C1.58 130.44 1.86 130.34 2.34 130.1 C2.63 129.96 2.98 129.77
							 3.29 129.65 C4.56 129.15 5.03 129.7 5.75 130 L0 130 Z" class="st7"/>
				<path d="M0 130 C0.15 130.21 0.72 130.38 1.15 130.41 C1.58 130.44 1.86 130.34 2.34 130.1 C2.63 129.96 2.98 129.77
							 3.29 129.65 C4.56 129.15 5.03 129.7 5.75 130" class="st11"/>
			</g>
		</g>
		<g id="group54-153" transform="translate(307.629,-53.5099)" v:mID="54" v:groupContext="group">
			<title>Disconnect.87</title>
			<g id="shape55-154" v:mID="55" v:groupContext="shape" transform="translate(0.997182,-0.143108)">
				<title>Sheet.55</title>
				<rect x="0" y="124.77" width="1.88976" height="5.6693" class="st10"/>
			</g>
			<g id="shape56-156" v:mID="56" v:groupContext="shape" transform="translate(131.498,145.999) rotate(99.4623)">
				<title>Sheet.56</title>
				<path d="M0 130 C0.15 130.21 0.72 130.38 1.15 130.41 C1.58 130.44 1.86 130.34 2.34 130.1 C2.63 129.96 2.98 129.77
							 3.29 129.65 C4.56 129.15 5.03 129.7 5.75 130 L0 130 Z" class="st7"/>
				<path d="M0 130 C0.15 130.21 0.72 130.38 1.15 130.41 C1.58 130.44 1.86 130.34 2.34 130.1 C2.63 129.96 2.98 129.77
							 3.29 129.65 C4.56 129.15 5.03 129.7 5.75 130" class="st11"/>
			</g>
			<g id="shape57-159" v:mID="57" v:groupContext="shape" transform="translate(129.609,145.999) rotate(99.4623)">
				<title>Sheet.57</title>
				<path d="M0 130 C0.15 130.21 0.72 130.38 1.15 130.41 C1.58 130.44 1.86 130.34 2.34 130.1 C2.63 129.96 2.98 129.77
							 3.29 129.65 C4.56 129.15 5.03 129.7 5.75 130 L0 130 Z" class="st7"/>
				<path d="M0 130 C0.15 130.21 0.72 130.38 1.15 130.41 C1.58 130.44 1.86 130.34 2.34 130.1 C2.63 129.96 2.98 129.77
							 3.29 129.65 C4.56 129.15 5.03 129.7 5.75 130" class="st11"/>
			</g>
		</g>
		<g id="group58-162" transform="translate(102.547,-56.4884)" v:mID="58" v:groupContext="group">
			<title>Sheet.58</title>
			<g id="shape59-163" v:mID="59" v:groupContext="shape">
				<title>Sheet.59</title>
				<rect x="0" y="119.1" width="235.276" height="11.3386" class="st12"/>
			</g>
			<g id="shape60-165" v:mID="60" v:groupContext="shape">
				<title>Sheet.60</title>
				<rect x="0" y="119.1" width="235.276" height="11.3386" class="st13"/>
			</g>
		</g>
		<g id="shape61-167" v:mID="61" v:groupContext="shape" transform="translate(147.902,-56.483)">
			<title>Sheet.61</title>
			<path d="M0 119.1 L0 130.44 L0 119.1 Z" class="st7"/>
			<path d="M0 119.1 L0 130.44" class="st8"/>
		</g>
		<g id="shape62-170" v:mID="62" v:groupContext="shape" transform="translate(170.579,-56.483)">
			<title>Sheet.62</title>
			<path d="M0 119.1 L0 130.44 L0 119.1 Z" class="st7"/>
			<path d="M0 119.1 L0 130.44" class="st8"/>
		</g>
		<g id="shape63-173" v:mID="63" v:groupContext="shape" transform="translate(329.294,-67.8263)">
			<title>Sheet.63</title>
			<desc>0</desc>
			<v:userDefs/>
			<v:textBlock v:margins="rect(0,0,0,0)" v:tabSpace="42.5198"/>
			<v:textRect cx="5.69501" cy="124.77" width="11.4" height="11.3386"/>
			<text x="3.47" y="127.17" class="st6" v:langID="1033"><v:paragraph v:horizAlign="1"/><v:tabList/>0</text>		</g>
		<g id="shape64-175" v:mID="64" v:groupContext="shape" transform="translate(215.933,-56.483)">
			<title>Sheet.64</title>
			<path d="M0 119.1 L0 130.44 L0 119.1 Z" class="st7"/>
			<path d="M0 119.1 L0 130.44" class="st8"/>
		</g>
		<g id="shape65-178" v:mID="65" v:groupContext="shape" transform="translate(238.61,-56.483)">
			<title>Sheet.65</title>
			<path d="M0 119.1 L0 130.44 L0 119.1 Z" class="st7"/>
			<path d="M0 119.1 L0 130.44" class="st8"/>
		</g>
		<g id="shape66-181" v:mID="66" v:groupContext="shape" transform="translate(261.287,-56.483)">
			<title>Sheet.66</title>
			<path d="M0 119.1 L0 130.44 L0 119.1 Z" class="st7"/>
			<path d="M0 119.1 L0 130.44" class="st8"/>
		</g>
		<g id="shape67-184" v:mID="67" v:groupContext="shape" transform="translate(283.965,-56.483)">
			<title>Sheet.67</title>
			<path d="M0 119.1 L0 130.44 L0 119.1 Z" class="st7"/>
			<path d="M0 119.1 L0 130.44" class="st8"/>
		</g>
		<g id="shape68-187" v:mID="68" v:groupContext="shape" transform="translate(102.547,-3.33871)">
			<title>Sheet.68</title>
			<rect x="0" y="119.1" width="22.6772" height="11.3386" class="st5"/>
		</g>
		<g id="shape69-189" v:mID="69" v:groupContext="shape" transform="translate(102.521,-14.6766)">
			<title>Sheet.69</title>
			<desc>63</desc>
			<v:userDefs/>
			<v:textBlock v:margins="rect(0,0,0,0)" v:tabSpace="42.5198"/>
			<v:textRect cx="5.69501" cy="124.77" width="11.4" height="11.3386"/>
			<text x="1.25" y="127.17" class="st6" v:langID="1033"><v:paragraph v:horizAlign="1"/><v:tabList/>63</text>		</g>
		<g id="shape70-191" v:mID="70" v:groupContext="shape" transform="translate(272.601,-14.6766)">
			<title>Sheet.70</title>
			<desc>56</desc>
			<v:userDefs/>
			<v:textBlock v:margins="rect(0,0,0,0)" v:tabSpace="42.5198"/>
			<v:textRect cx="5.69501" cy="124.77" width="11.4" height="11.3386"/>
			<text x="1.25" y="127.17" class="st6" v:langID="1033"><v:paragraph v:horizAlign="1"/><v:tabList/>56</text>		</g>
		<g id="shape71-193" v:mID="71" v:groupContext="shape" transform="translate(283.94,-14.6766)">
			<title>Sheet.71</title>
			<desc>55</desc>
			<v:userDefs/>
			<v:textBlock v:margins="rect(0,0,0,0)" v:tabSpace="42.5198"/>
			<v:textRect cx="5.69501" cy="124.77" width="11.4" height="11.3386"/>
			<text x="1.25" y="127.17" class="st6" v:langID="1033"><v:paragraph v:horizAlign="1"/><v:tabList/>55</text>		</g>
		<g id="shape72-195" v:mID="72" v:groupContext="shape" transform="translate(125.224,-3.33871)">
			<title>Sheet.72</title>
			<rect x="0" y="119.1" width="215.433" height="11.3386" class="st5"/>
		</g>
		<g id="shape73-197" v:mID="73" v:groupContext="shape" transform="translate(125.224,-3.33331)">
			<title>Sheet.73</title>
			<path d="M0 119.1 L0 130.44 L0 119.1 Z" class="st7"/>
			<path d="M0 119.1 L0 130.44" class="st8"/>
		</g>
		<g id="shape74-200" v:mID="74" v:groupContext="shape" transform="translate(193.256,-3.33331)">
			<title>Sheet.74</title>
			<path d="M0 119.1 L0 130.44 L0 119.1 Z" class="st7"/>
			<path d="M0 119.1 L0 130.44" class="st8"/>
		</g>
		<g id="shape75-203" v:mID="75" v:groupContext="shape" transform="translate(468.257,104.423) rotate(90)">
			<title>Signal 0.106</title>
			<path d="M0 130.44 L11.34 130.44 L0 130.44 Z" class="st7"/>
			<path d="M0 130.44 L11.34 130.44" class="st9"/>
		</g>
		<g id="shape76-206" v:mID="76" v:groupContext="shape" transform="translate(414.399,104.423) rotate(90)">
			<title>Signal 0.107</title>
			<path d="M0 130.44 L11.34 130.44 L0 130.44 Z" class="st7"/>
			<path d="M0 130.44 L11.34 130.44" class="st9"/>
		</g>
		<g id="shape77-209" v:mID="77" v:groupContext="shape" transform="translate(232.981,104.423) rotate(90)">
			<title>Signal 0.108</title>
			<path d="M0 130.44 L11.34 130.44 L0 130.44 Z" class="st7"/>
			<path d="M0 130.44 L11.34 130.44" class="st9"/>
		</g>
		<g id="group78-212" transform="translate(307.629,-11.6989)" v:mID="78" v:groupContext="group">
			<title>Disconnect.78</title>
			<g id="shape79-213" v:mID="79" v:groupContext="shape" transform="translate(0.997182,-0.143108)">
				<title>Sheet.79</title>
				<rect x="0" y="124.77" width="1.88976" height="5.6693" class="st10"/>
			</g>
			<g id="shape80-215" v:mID="80" v:groupContext="shape" transform="translate(131.498,145.999) rotate(99.4623)">
				<title>Sheet.80</title>
				<path d="M0 130 C0.15 130.21 0.72 130.38 1.15 130.41 C1.58 130.44 1.86 130.34 2.34 130.1 C2.63 129.96 2.98 129.77
							 3.29 129.65 C4.56 129.15 5.03 129.7 5.75 130 L0 130 Z" class="st7"/>
				<path d="M0 130 C0.15 130.21 0.72 130.38 1.15 130.41 C1.58 130.44 1.86 130.34 2.34 130.1 C2.63 129.96 2.98 129.77
							 3.29 129.65 C4.56 129.15 5.03 129.7 5.75 130" class="st11"/>
			</g>
			<g id="shape81-218" v:mID="81" v:groupContext="shape" transform="translate(129.609,145.999) rotate(99.4623)">
				<title>Sheet.81</title>
				<path d="M0 130 C0.15 130.21 0.72 130.38 1.15 130.41 C1.58 130.44 1.86 130.34 2.34 130.1 C2.63 129.96 2.98 129.77
							 3.29 129.65 C4.56 129.15 5.03 129.7 5.75 130 L0 130 Z" class="st7"/>
				<path d="M0 130 C0.15 130.21 0.72 130.38 1.15 130.41 C1.58 130.44 1.86 130.34 2.34 130.1 C2.63 129.96 2.98 129.77
							 3.29 129.65 C4.56 129.15 5.03 129.7 5.75 130" class="st11"/>
			</g>
		</g>
		<g id="group82-221" transform="translate(307.629,-0.360262)" v:mID="82" v:groupContext="group">
			<title>Disconnect.113</title>
			<g id="shape83-222" v:mID="83" v:groupContext="shape" transform="translate(0.997182,-0.143108)">
				<title>Sheet.83</title>
				<rect x="0" y="124.77" width="1.88976" height="5.6693" class="st10"/>
			</g>
			<g id="shape84-224" v:mID="84" v:groupContext="shape" transform="translate(131.498,145.999) rotate(99.4623)">
				<title>Sheet.84</title>
				<path d="M0 130 C0.15 130.21 0.72 130.38 1.15 130.41 C1.58 130.44 1.86 130.34 2.34 130.1 C2.63 129.96 2.98 129.77
							 3.29 129.65 C4.56 129.15 5.03 129.7 5.75 130 L0 130 Z" class="st7"/>
				<path d="M0 130 C0.15 130.21 0.72 130.38 1.15 130.41 C1.58 130.44 1.86 130.34 2.34 130.1 C2.63 129.96 2.98 129.77
							 3.29 129.65 C4.56 129.15 5.03 129.7 5.75 130" class="st11"/>
			</g>
			<g id="shape85-227" v:mID="85" v:groupContext="shape" transform="translate(129.609,145.999) rotate(99.4623)">
				<title>Sheet.85</title>
				<path d="M0 130 C0.15 130.21 0.72 130.38 1.15 130.41 C1.58 130.44 1.86 130.34 2.34 130.1 C2.63 129.96 2.98 129.77
							 3.29 129.65 C4.56 129.15 5.03 129.7 5.75 130 L0 130 Z" class="st7"/>
				<path d="M0 130 C0.15 130.21 0.72 130.38 1.15 130.41 C1.58 130.44 1.86 130.34 2.34 130.1 C2.63 129.96 2.98 129.77
							 3.29 129.65 C4.56 129.15 5.03 129.7 5.75 130" class="st11"/>
			</g>
		</g>
		<g id="group86-230" transform="translate(102.547,-3.33871)" v:mID="86" v:groupContext="group">
			<title>Sheet.86</title>
			<g id="shape87-231" v:mID="87" v:groupContext="shape">
				<title>Sheet.87</title>
				<rect x="0" y="119.1" width="235.276" height="11.3386" class="st12"/>
			</g>
			<g id="shape88-233" v:mID="88" v:groupContext="shape">
				<title>Sheet.88</title>
				<rect x="0" y="119.1" width="235.276" height="11.3386" class="st13"/>
			</g>
		</g>
		<g id="shape89-235" v:mID="89" v:groupContext="shape" transform="translate(147.902,-3.33331)">
			<title>Sheet.89</title>
			<path d="M0 119.1 L0 130.44 L0 119.1 Z" class="st7"/>
			<path d="M0 119.1 L0 130.44" class="st8"/>
		</g>
		<g id="shape90-238" v:mID="90" v:groupContext="shape" transform="translate(170.579,-3.33331)">
			<title>Sheet.90</title>
			<path d="M0 119.1 L0 130.44 L0 119.1 Z" class="st7"/>
			<path d="M0 119.1 L0 130.44" class="st8"/>
		</g>
		<g id="shape91-241" v:mID="91" v:groupContext="shape" transform="translate(329.294,-14.6766)">
			<title>Sheet.91</title>
			<desc>0</desc>
			<v:userDefs/>
			<v:textBlock v:margins="rect(0,0,0,0)" v:tabSpace="42.5198"/>
			<v:textRect cx="5.69501" cy="124.77" width="11.4" height="11.3386"/>
			<text x="3.47" y="127.17" class="st6" v:langID="1033"><v:paragraph v:horizAlign="1"/><v:tabList/>0</text>		</g>
		<g id="shape92-243" v:mID="92" v:groupContext="shape" transform="translate(215.933,-3.33331)">
			<title>Sheet.92</title>
			<path d="M0 119.1 L0 130.44 L0 119.1 Z" class="st7"/>
			<path d="M0 119.1 L0 130.44" class="st8"/>
		</g>
		<g id="shape93-246" v:mID="93" v:groupContext="shape" transform="translate(238.61,-3.33331)">
			<title>Sheet.93</title>
			<path d="M0 119.1 L0 130.44 L0 119.1 Z" class="st7"/>
			<path d="M0 119.1 L0 130.44" class="st8"/>
		</g>
		<g id="shape94-249" v:mID="94" v:groupContext="shape" transform="translate(261.287,-3.33331)">
			<title>Sheet.94</title>
			<path d="M0 119.1 L0 130.44 L0 119.1 Z" class="st7"/>
			<path d="M0 119.1 L0 130.44" class="st8"/>
		</g>
		<g id="shape95-252" v:mID="95" v:groupContext="shape" transform="translate(283.965,-3.33331)">
			<title>Sheet.95</title>
			<path d="M0 119.1 L0 130.44 L0 119.1 Z" class="st7"/>
			<path d="M0 119.1 L0 130.44" class="st8"/>
		</g>
	</g>
</svg>
