<?xml version="1.0" encoding="UTF-8" standalone="no"?>
<!DOCTYPE svg PUBLIC "-//W3C//DTD SVG 1.1//EN" "http://www.w3.org/Graphics/SVG/1.1/DTD/svg11.dtd">
<!-- Generated by Microsoft Visio, SVG Export A64.deinterleaving_an_array_of_3_element_structures.svg Page-1 -->
<svg xmlns="http://www.w3.org/2000/svg" xmlns:xlink="http://www.w3.org/1999/xlink" xmlns:ev="http://www.w3.org/2001/xml-events"
		xmlns:v="http://schemas.microsoft.com/visio/2003/SVGExtensions/" width="5.31841in" height="2.25799in"
		viewBox="0 0 382.926 162.576" xml:space="preserve" color-interpolation-filters="sRGB" class="st11">
	<v:documentProperties v:langID="2057"/>

	<style type="text/css">
	<![CDATA[
		.st1 {fill:none}
		.st2 {stroke:#000000;stroke-linecap:butt;stroke-width:0.499999}
		.st3 {fill:none;stroke:none;stroke-linecap:butt;stroke-width:0.499999}
		.st4 {fill:#000000;font-family:Arial;font-size:0.666664em}
		.st5 {fill:#ffffff;stroke:none;stroke-linecap:butt;stroke-width:0.499999}
		.st6 {fill:none;stroke:#000000;stroke-linecap:butt;stroke-width:0.499999}
		.st7 {baseline-shift:-32.4939%;font-size:0.649878em}
		.st8 {marker-start:url(#mrkr4-184);stroke:#000000;stroke-linecap:butt;stroke-width:0.499999}
		.st9 {fill:#000000;fill-opacity:1;stroke:#000000;stroke-opacity:1;stroke-width:0.21739084389408}
		.st10 {font-size:1em}
		.st11 {fill:none;fill-rule:evenodd;font-size:12px;overflow:visible;stroke-linecap:square;stroke-miterlimit:3}
	]]>
	</style>

	<defs id="Markers">
		<g id="lend4">
			<path d="M 2 1 L 0 0 L 2 -1 L 2 1 " style="stroke:none"/>
		</g>
		<marker id="mrkr4-184" class="st9" v:arrowType="4" v:arrowSize="1" v:setback="0" refX="0" orient="auto"
				markerUnits="strokeWidth" overflow="visible">
			<use xlink:href="#lend4" transform="scale(4.6000097432218) "/>
		</marker>
	</defs>
	<g v:mID="0" v:index="1" v:groupContext="foregroundPage">
		<title>Page-1</title>
		<v:pageProperties v:drawingScale="0.0393701" v:pageScale="0.0393701" v:drawingUnits="24" v:shadowOffsetX="0"
				v:shadowOffsetY="0" v:shadowType="1" v:shadowScale="0"/>
		<g id="shape1-1" v:mID="1" v:groupContext="shape" transform="translate(258.04,9.00392) rotate(90)">
			<title>Sheet.1</title>
			<path d="M0 162.58 L147.4 162.58 L0 162.58 Z" class="st1"/>
			<path d="M0 162.58 L147.4 162.58" class="st2"/>
		</g>
		<g id="shape2-4" v:mID="2" v:groupContext="shape" transform="translate(283.552,9.00392) rotate(90)">
			<title>Sheet.2</title>
			<path d="M0 162.58 L147.4 162.58 L0 162.58 Z" class="st1"/>
			<path d="M0 162.58 L147.4 162.58" class="st2"/>
		</g>
		<g id="shape3-7" v:mID="3" v:groupContext="shape" transform="translate(95.4603,-147.908)">
			<title>Sheet.3</title>
			<path d="M0 162.58 L25.51 162.58 L0 162.58 Z" class="st1"/>
			<path d="M0 162.58 L25.51 162.58" class="st2"/>
		</g>
		<g id="shape4-10" v:mID="4" v:groupContext="shape" transform="translate(95.4603,-136.569)">
			<title>Sheet.4</title>
			<path d="M0 162.58 L25.51 162.58 L0 162.58 Z" class="st1"/>
			<path d="M0 162.58 L25.51 162.58" class="st2"/>
		</g>
		<g id="shape5-13" v:mID="5" v:groupContext="shape" transform="translate(95.4603,-125.23)">
			<title>Sheet.5</title>
			<path d="M0 162.58 L25.51 162.58 L0 162.58 Z" class="st1"/>
			<path d="M0 162.58 L25.51 162.58" class="st2"/>
		</g>
		<g id="shape6-16" v:mID="6" v:groupContext="shape" transform="translate(95.4603,-113.892)">
			<title>Sheet.6</title>
			<path d="M0 162.58 L25.51 162.58 L0 162.58 Z" class="st1"/>
			<path d="M0 162.58 L25.51 162.58" class="st2"/>
		</g>
		<g id="shape7-19" v:mID="7" v:groupContext="shape" transform="translate(95.4603,-102.553)">
			<title>Sheet.7</title>
			<path d="M0 162.58 L25.51 162.58 L0 162.58 Z" class="st1"/>
			<path d="M0 162.58 L25.51 162.58" class="st2"/>
		</g>
		<g id="shape8-22" v:mID="8" v:groupContext="shape" transform="translate(95.4603,-91.2145)">
			<title>Sheet.8</title>
			<path d="M0 162.58 L25.51 162.58 L0 162.58 Z" class="st1"/>
			<path d="M0 162.58 L25.51 162.58" class="st2"/>
		</g>
		<g id="shape9-25" v:mID="9" v:groupContext="shape" transform="translate(95.4603,-79.8759)">
			<title>Sheet.9</title>
			<path d="M0 162.58 L25.51 162.58 L0 162.58 Z" class="st1"/>
			<path d="M0 162.58 L25.51 162.58" class="st2"/>
		</g>
		<g id="shape10-28" v:mID="10" v:groupContext="shape" transform="translate(95.4603,-68.5373)">
			<title>Sheet.10</title>
			<path d="M0 162.58 L25.51 162.58 L0 162.58 Z" class="st1"/>
			<path d="M0 162.58 L25.51 162.58" class="st2"/>
		</g>
		<g id="shape11-31" v:mID="11" v:groupContext="shape" transform="translate(95.4603,-57.1987)">
			<title>Sheet.11</title>
			<path d="M0 162.58 L25.51 162.58 L0 162.58 Z" class="st1"/>
			<path d="M0 162.58 L25.51 162.58" class="st2"/>
		</g>
		<g id="shape12-34" v:mID="12" v:groupContext="shape" transform="translate(95.4603,-45.8602)">
			<title>Sheet.12</title>
			<path d="M0 162.58 L25.51 162.58 L0 162.58 Z" class="st1"/>
			<path d="M0 162.58 L25.51 162.58" class="st2"/>
		</g>
		<g id="shape13-37" v:mID="13" v:groupContext="shape" transform="translate(95.4603,-34.5216)">
			<title>Sheet.13</title>
			<path d="M0 162.58 L25.51 162.58 L0 162.58 Z" class="st1"/>
			<path d="M0 162.58 L25.51 162.58" class="st2"/>
		</g>
		<g id="shape14-40" v:mID="14" v:groupContext="shape" transform="translate(95.4603,-23.1831)">
			<title>Sheet.14</title>
			<path d="M0 162.58 L25.51 162.58 L0 162.58 Z" class="st1"/>
			<path d="M0 162.58 L25.51 162.58" class="st2"/>
		</g>
		<g id="shape15-43" v:mID="15" v:groupContext="shape" transform="translate(95.4603,-11.8446)">
			<title>Sheet.15</title>
			<path d="M0 162.58 L25.51 162.58 L0 162.58 Z" class="st1"/>
			<path d="M0 162.58 L25.51 162.58" class="st2"/>
		</g>
		<g id="shape16-46" v:mID="16" v:groupContext="shape" transform="translate(95.4603,-136.564)">
			<title>Sheet.16</title>
			<desc>A[0].x</desc>
			<v:userDefs/>
			<v:textBlock v:margins="rect(0.999997,0.999997,0.999997,0.999997)" v:tabSpace="42.5196"/>
			<v:textRect cx="12.7554" cy="156.907" width="25.52" height="11.3386"/>
			<rect x="0" y="151.237" width="25.5117" height="11.3386" class="st3"/>
			<text x="2.53" y="159.31" class="st4" v:langID="1033"><v:paragraph v:horizAlign="1"/><v:tabList/>A[0].x</text>		</g>
		<g id="shape17-49" v:mID="17" v:groupContext="shape" transform="translate(95.4603,-125.225)">
			<title>Sheet.17</title>
			<desc>A[0].y</desc>
			<v:userDefs/>
			<v:textBlock v:margins="rect(0.999997,0.999997,0.999997,0.999997)" v:tabSpace="42.5196"/>
			<v:textRect cx="12.7554" cy="156.907" width="25.52" height="11.3386"/>
			<rect x="0" y="151.237" width="25.5117" height="11.3386" class="st3"/>
			<text x="2.53" y="159.31" class="st4" v:langID="1033"><v:paragraph v:horizAlign="1"/><v:tabList/>A[0].y</text>		</g>
		<g id="shape18-52" v:mID="18" v:groupContext="shape" transform="translate(95.4603,-113.887)">
			<title>Sheet.18</title>
			<desc>A[0].z</desc>
			<v:userDefs/>
			<v:textBlock v:margins="rect(0.999997,0.999997,0.999997,0.999997)" v:tabSpace="42.5196"/>
			<v:textRect cx="12.7554" cy="156.907" width="25.52" height="11.3386"/>
			<rect x="0" y="151.237" width="25.5117" height="11.3386" class="st3"/>
			<text x="2.53" y="159.31" class="st4" v:langID="1033"><v:paragraph v:horizAlign="1"/><v:tabList/>A[0].z</text>		</g>
		<g id="shape19-55" v:mID="19" v:groupContext="shape" transform="translate(95.4603,-102.548)">
			<title>Sheet.19</title>
			<desc>A[1].x</desc>
			<v:userDefs/>
			<v:textBlock v:margins="rect(0.999997,0.999997,0.999997,0.999997)" v:tabSpace="42.5196"/>
			<v:textRect cx="12.7554" cy="156.907" width="25.52" height="11.3386"/>
			<rect x="0" y="151.237" width="25.5117" height="11.3386" class="st3"/>
			<text x="2.53" y="159.31" class="st4" v:langID="1033"><v:paragraph v:horizAlign="1"/><v:tabList/>A[1].x</text>		</g>
		<g id="shape20-58" v:mID="20" v:groupContext="shape" transform="translate(95.4603,-91.2099)">
			<title>Sheet.20</title>
			<desc>A[1].y</desc>
			<v:userDefs/>
			<v:textBlock v:margins="rect(0.999997,0.999997,0.999997,0.999997)" v:tabSpace="42.5196"/>
			<v:textRect cx="12.7554" cy="156.907" width="25.52" height="11.3386"/>
			<rect x="0" y="151.237" width="25.5117" height="11.3386" class="st3"/>
			<text x="2.53" y="159.31" class="st4" v:langID="1033"><v:paragraph v:horizAlign="1"/><v:tabList/>A[1].y</text>		</g>
		<g id="shape21-61" v:mID="21" v:groupContext="shape" transform="translate(95.4603,-79.8713)">
			<title>Sheet.21</title>
			<desc>A[1].z</desc>
			<v:userDefs/>
			<v:textBlock v:margins="rect(0.999997,0.999997,0.999997,0.999997)" v:tabSpace="42.5196"/>
			<v:textRect cx="12.7554" cy="156.907" width="25.52" height="11.3386"/>
			<rect x="0" y="151.237" width="25.5117" height="11.3386" class="st3"/>
			<text x="2.53" y="159.31" class="st4" v:langID="1033"><v:paragraph v:horizAlign="1"/><v:tabList/>A[1].z</text>		</g>
		<g id="shape22-64" v:mID="22" v:groupContext="shape" transform="translate(95.4603,-68.5327)">
			<title>Sheet.22</title>
			<desc>A[2].x</desc>
			<v:userDefs/>
			<v:textBlock v:margins="rect(0.999997,0.999997,0.999997,0.999997)" v:tabSpace="42.5196"/>
			<v:textRect cx="12.7554" cy="156.907" width="25.52" height="11.3386"/>
			<rect x="0" y="151.237" width="25.5117" height="11.3386" class="st3"/>
			<text x="2.53" y="159.31" class="st4" v:langID="1033"><v:paragraph v:horizAlign="1"/><v:tabList/>A[2].x</text>		</g>
		<g id="shape23-67" v:mID="23" v:groupContext="shape" transform="translate(95.4603,-57.1941)">
			<title>Sheet.23</title>
			<desc>A[2].y</desc>
			<v:userDefs/>
			<v:textBlock v:margins="rect(0.999997,0.999997,0.999997,0.999997)" v:tabSpace="42.5196"/>
			<v:textRect cx="12.7554" cy="156.907" width="25.52" height="11.3386"/>
			<rect x="0" y="151.237" width="25.5117" height="11.3386" class="st3"/>
			<text x="2.53" y="159.31" class="st4" v:langID="1033"><v:paragraph v:horizAlign="1"/><v:tabList/>A[2].y</text>		</g>
		<g id="shape24-70" v:mID="24" v:groupContext="shape" transform="translate(95.4603,-45.8556)">
			<title>Sheet.24</title>
			<desc>A[2].z</desc>
			<v:userDefs/>
			<v:textBlock v:margins="rect(0.999997,0.999997,0.999997,0.999997)" v:tabSpace="42.5196"/>
			<v:textRect cx="12.7554" cy="156.907" width="25.52" height="11.3386"/>
			<rect x="0" y="151.237" width="25.5117" height="11.3386" class="st3"/>
			<text x="2.53" y="159.31" class="st4" v:langID="1033"><v:paragraph v:horizAlign="1"/><v:tabList/>A[2].z</text>		</g>
		<g id="shape25-73" v:mID="25" v:groupContext="shape" transform="translate(95.4603,-34.517)">
			<title>Sheet.25</title>
			<desc>A[3].x</desc>
			<v:userDefs/>
			<v:textBlock v:margins="rect(0.999997,0.999997,0.999997,0.999997)" v:tabSpace="42.5196"/>
			<v:textRect cx="12.7554" cy="156.907" width="25.52" height="11.3386"/>
			<rect x="0" y="151.237" width="25.5117" height="11.3386" class="st3"/>
			<text x="2.53" y="159.31" class="st4" v:langID="1033"><v:paragraph v:horizAlign="1"/><v:tabList/>A[3].x</text>		</g>
		<g id="shape26-76" v:mID="26" v:groupContext="shape" transform="translate(95.4603,-23.1785)">
			<title>Sheet.26</title>
			<desc>A[3].y</desc>
			<v:userDefs/>
			<v:textBlock v:margins="rect(0.999997,0.999997,0.999997,0.999997)" v:tabSpace="42.5196"/>
			<v:textRect cx="12.7554" cy="156.907" width="25.52" height="11.3386"/>
			<rect x="0" y="151.237" width="25.5117" height="11.3386" class="st3"/>
			<text x="2.53" y="159.31" class="st4" v:langID="1033"><v:paragraph v:horizAlign="1"/><v:tabList/>A[3].y</text>		</g>
		<g id="shape27-79" v:mID="27" v:groupContext="shape" transform="translate(95.4603,-11.84)">
			<title>Sheet.27</title>
			<desc>A[3].z</desc>
			<v:userDefs/>
			<v:textBlock v:margins="rect(0.999997,0.999997,0.999997,0.999997)" v:tabSpace="42.5196"/>
			<v:textRect cx="12.7554" cy="156.907" width="25.52" height="11.3386"/>
			<rect x="0" y="151.237" width="25.5117" height="11.3386" class="st3"/>
			<text x="2.53" y="159.31" class="st4" v:langID="1033"><v:paragraph v:horizAlign="1"/><v:tabList/>A[3].z</text>		</g>
		<g id="shape28-82" v:mID="28" v:groupContext="shape" transform="translate(77.0352,-150.737)">
			<title>Sheet.28</title>
			<desc>Memory</desc>
			<v:userDefs/>
			<v:textBlock v:margins="rect(0.999997,0.999997,0.999997,0.999997)" v:tabSpace="42.5196"/>
			<v:textRect cx="15.5901" cy="156.907" width="31.19" height="11.3386"/>
			<rect x="0" y="151.237" width="31.181" height="11.3386" class="st5"/>
			<text x="1.14" y="159.31" class="st4" v:langID="1033"><v:paragraph v:horizAlign="1"/><v:tabList/>Memory</text>		</g>
		<g id="group29-85" transform="translate(132.311,-0.499999)" v:mID="29" v:groupContext="group">
			<title>Sheet.29</title>
			<g id="shape30-86" v:mID="30" v:groupContext="shape" transform="translate(-7.99361E-14,-0.0014)">
				<title>Sheet.30</title>
				<rect x="0" y="151.237" width="45.3542" height="11.3386" class="st6"/>
			</g>
			<g id="shape31-88" v:mID="31" v:groupContext="shape" transform="translate(173.919,151.236) rotate(90)">
				<title>Sheet.31</title>
				<path d="M0 162.58 L11.34 162.58 L0 162.58 Z" class="st1"/>
				<path d="M0 162.58 L11.34 162.58" class="st2"/>
			</g>
			<g id="shape32-91" v:mID="32" v:groupContext="shape" transform="translate(185.257,151.236) rotate(90)">
				<title>Sheet.32</title>
				<path d="M0 162.58 L11.34 162.58 L0 162.58 Z" class="st1"/>
				<path d="M0 162.58 L11.34 162.58" class="st2"/>
			</g>
			<g id="shape33-94" v:mID="33" v:groupContext="shape" transform="translate(196.596,151.236) rotate(90)">
				<title>Sheet.33</title>
				<path d="M0 162.58 L11.34 162.58 L0 162.58 Z" class="st1"/>
				<path d="M0 162.58 L11.34 162.58" class="st2"/>
			</g>
			<g id="shape34-97" v:mID="34" v:groupContext="shape" transform="translate(-8.99281E-15,-0.0014)">
				<title>Sheet.34</title>
				<desc>Z3</desc>
				<v:userDefs/>
				<v:textBlock v:margins="rect(0.999997,0.999997,0.999997,0.999997)" v:tabSpace="42.5196"/>
				<v:textRect cx="5.66886" cy="156.907" width="11.34" height="11.3386"/>
				<rect x="0" y="151.237" width="11.3386" height="11.3386" class="st3"/>
				<text x="1.78" y="159.31" class="st4" v:langID="1033"><v:paragraph v:horizAlign="1"/><v:tabList/>Z<tspan
							dy="-0.287em" class="st7" v:baseFontSize="7.99998">3</tspan></text>			</g>
			<g id="shape35-101" v:mID="35" v:groupContext="shape" transform="translate(11.3386,-0.0014)">
				<title>Sheet.35</title>
				<desc>Z2</desc>
				<v:userDefs/>
				<v:textBlock v:margins="rect(0.999997,0.999997,0.999997,0.999997)" v:tabSpace="42.5196"/>
				<v:textRect cx="5.66886" cy="156.907" width="11.34" height="11.3386"/>
				<rect x="0" y="151.237" width="11.3386" height="11.3386" class="st3"/>
				<text x="1.78" y="159.31" class="st4" v:langID="1033"><v:paragraph v:horizAlign="1"/><v:tabList/>Z<tspan
							dy="-0.287em" class="st7" v:baseFontSize="7.99998">2</tspan></text>			</g>
			<g id="shape36-105" v:mID="36" v:groupContext="shape" transform="translate(22.6771,-0.0014)">
				<title>Sheet.36</title>
				<desc>Z1</desc>
				<v:userDefs/>
				<v:textBlock v:margins="rect(0.999997,0.999997,0.999997,0.999997)" v:tabSpace="42.5196"/>
				<v:textRect cx="5.66886" cy="156.907" width="11.34" height="11.3386"/>
				<rect x="0" y="151.237" width="11.3386" height="11.3386" class="st3"/>
				<text x="1.78" y="159.31" class="st4" v:langID="1033"><v:paragraph v:horizAlign="1"/><v:tabList/>Z<tspan
							dy="-0.287em" class="st7" v:baseFontSize="7.99998">1</tspan></text>			</g>
			<g id="shape37-109" v:mID="37" v:groupContext="shape" transform="translate(34.0156,-0.0014)">
				<title>Sheet.37</title>
				<desc>Z0</desc>
				<v:userDefs/>
				<v:textBlock v:margins="rect(0.999997,0.999997,0.999997,0.999997)" v:tabSpace="42.5196"/>
				<v:textRect cx="5.66886" cy="156.907" width="11.34" height="11.3386"/>
				<rect x="0" y="151.237" width="11.3386" height="11.3386" class="st3"/>
				<text x="1.78" y="159.31" class="st4" v:langID="1033"><v:paragraph v:horizAlign="1"/><v:tabList/>Z<tspan
							dy="-0.287em" class="st7" v:baseFontSize="7.99998">0</tspan></text>			</g>
			<g id="shape38-113" v:mID="38" v:groupContext="shape" transform="translate(45.3542,-0.0014)">
				<title>Sheet.38</title>
				<desc>D2</desc>
				<v:userDefs/>
				<v:textBlock v:margins="rect(0.999997,0.999997,0.999997,0.999997)" v:tabSpace="42.5196"/>
				<v:textRect cx="7.08617" cy="156.907" width="14.18" height="11.3386"/>
				<rect x="0" y="151.237" width="14.1732" height="11.3386" class="st3"/>
				<text x="1.97" y="159.31" class="st4" v:langID="1033"><v:paragraph v:horizAlign="1"/><v:tabList/>D2</text>			</g>
		</g>
		<g id="shape39-116" v:mID="39" v:groupContext="shape" transform="translate(204.593,-11.84)">
			<title>Sheet.39</title>
			<rect x="0" y="151.237" width="45.3542" height="11.3386" class="st6"/>
		</g>
		<g id="shape40-118" v:mID="40" v:groupContext="shape" transform="translate(378.513,139.398) rotate(90)">
			<title>Sheet.40</title>
			<path d="M0 162.58 L11.34 162.58 L0 162.58 Z" class="st1"/>
			<path d="M0 162.58 L11.34 162.58" class="st2"/>
		</g>
		<g id="shape41-121" v:mID="41" v:groupContext="shape" transform="translate(389.851,139.398) rotate(90)">
			<title>Sheet.41</title>
			<path d="M0 162.58 L11.34 162.58 L0 162.58 Z" class="st1"/>
			<path d="M0 162.58 L11.34 162.58" class="st2"/>
		</g>
		<g id="shape42-124" v:mID="42" v:groupContext="shape" transform="translate(401.19,139.398) rotate(90)">
			<title>Sheet.42</title>
			<path d="M0 162.58 L11.34 162.58 L0 162.58 Z" class="st1"/>
			<path d="M0 162.58 L11.34 162.58" class="st2"/>
		</g>
		<g id="shape43-127" v:mID="43" v:groupContext="shape" transform="translate(204.593,-11.84)">
			<title>Sheet.43</title>
			<desc>Y3</desc>
			<v:userDefs/>
			<v:textBlock v:margins="rect(0.999997,0.999997,0.999997,0.999997)" v:tabSpace="42.5196"/>
			<v:textRect cx="5.66886" cy="156.907" width="11.34" height="11.3386"/>
			<rect x="0" y="151.237" width="11.3386" height="11.3386" class="st3"/>
			<text x="1.56" y="159.31" class="st4" v:langID="1033"><v:paragraph v:horizAlign="1"/><v:tabList/>Y<tspan dy="-0.287em"
						class="st7" v:baseFontSize="7.99998">3</tspan></text>		</g>
		<g id="shape44-131" v:mID="44" v:groupContext="shape" transform="translate(227.271,-11.84)">
			<title>Sheet.44</title>
			<desc>Y1</desc>
			<v:userDefs/>
			<v:textBlock v:margins="rect(0.999997,0.999997,0.999997,0.999997)" v:tabSpace="42.5196"/>
			<v:textRect cx="5.66886" cy="156.907" width="11.34" height="11.3386"/>
			<rect x="0" y="151.237" width="11.3386" height="11.3386" class="st3"/>
			<text x="1.56" y="159.31" class="st4" v:langID="1033"><v:paragraph v:horizAlign="1"/><v:tabList/>Y<tspan dy="-0.287em"
						class="st7" v:baseFontSize="7.99998">1</tspan></text>		</g>
		<g id="shape45-135" v:mID="45" v:groupContext="shape" transform="translate(249.948,-11.84)">
			<title>Sheet.45</title>
			<desc>D1</desc>
			<v:userDefs/>
			<v:textBlock v:margins="rect(0.999997,0.999997,0.999997,0.999997)" v:tabSpace="42.5196"/>
			<v:textRect cx="7.08617" cy="156.907" width="14.18" height="11.3386"/>
			<rect x="0" y="151.237" width="14.1732" height="11.3386" class="st3"/>
			<text x="1.97" y="159.31" class="st4" v:langID="1033"><v:paragraph v:horizAlign="1"/><v:tabList/>D1</text>		</g>
		<g id="shape46-138" v:mID="46" v:groupContext="shape" transform="translate(274.042,-23.1785)">
			<title>Sheet.46</title>
			<rect x="0" y="151.237" width="45.3542" height="11.3386" class="st6"/>
		</g>
		<g id="shape47-140" v:mID="47" v:groupContext="shape" transform="translate(447.962,128.059) rotate(90)">
			<title>Sheet.47</title>
			<path d="M0 162.58 L11.34 162.58 L0 162.58 Z" class="st1"/>
			<path d="M0 162.58 L11.34 162.58" class="st2"/>
		</g>
		<g id="shape48-143" v:mID="48" v:groupContext="shape" transform="translate(459.3,128.059) rotate(90)">
			<title>Sheet.48</title>
			<path d="M0 162.58 L11.34 162.58 L0 162.58 Z" class="st1"/>
			<path d="M0 162.58 L11.34 162.58" class="st2"/>
		</g>
		<g id="shape49-146" v:mID="49" v:groupContext="shape" transform="translate(470.639,128.059) rotate(90)">
			<title>Sheet.49</title>
			<path d="M0 162.58 L11.34 162.58 L0 162.58 Z" class="st1"/>
			<path d="M0 162.58 L11.34 162.58" class="st2"/>
		</g>
		<g id="shape50-149" v:mID="50" v:groupContext="shape" transform="translate(274.042,-23.1785)">
			<title>Sheet.50</title>
			<desc>X3</desc>
			<v:userDefs/>
			<v:textBlock v:margins="rect(0.999997,0.999997,0.999997,0.999997)" v:tabSpace="42.5196"/>
			<v:textRect cx="5.66886" cy="156.907" width="11.34" height="11.3386"/>
			<rect x="0" y="151.237" width="11.3386" height="11.3386" class="st3"/>
			<text x="1.56" y="159.31" class="st4" v:langID="1033"><v:paragraph v:horizAlign="1"/><v:tabList/>X<tspan dy="-0.287em"
						class="st7" v:baseFontSize="7.99998">3</tspan></text>		</g>
		<g id="shape51-153" v:mID="51" v:groupContext="shape" transform="translate(285.381,-23.1785)">
			<title>Sheet.51</title>
			<desc>X2</desc>
			<v:userDefs/>
			<v:textBlock v:margins="rect(0.999997,0.999997,0.999997,0.999997)" v:tabSpace="42.5196"/>
			<v:textRect cx="5.66886" cy="156.907" width="11.34" height="11.3386"/>
			<rect x="0" y="151.237" width="11.3386" height="11.3386" class="st3"/>
			<text x="1.56" y="159.31" class="st4" v:langID="1033"><v:paragraph v:horizAlign="1"/><v:tabList/>X<tspan dy="-0.287em"
						class="st7" v:baseFontSize="7.99998">2</tspan></text>		</g>
		<g id="shape52-157" v:mID="52" v:groupContext="shape" transform="translate(296.719,-23.1785)">
			<title>Sheet.52</title>
			<desc>X1</desc>
			<v:userDefs/>
			<v:textBlock v:margins="rect(0.999997,0.999997,0.999997,0.999997)" v:tabSpace="42.5196"/>
			<v:textRect cx="5.66886" cy="156.907" width="11.34" height="11.3386"/>
			<rect x="0" y="151.237" width="11.3386" height="11.3386" class="st3"/>
			<text x="1.56" y="159.31" class="st4" v:langID="1033"><v:paragraph v:horizAlign="1"/><v:tabList/>X<tspan dy="-0.287em"
						class="st7" v:baseFontSize="7.99998">1</tspan></text>		</g>
		<g id="shape53-161" v:mID="53" v:groupContext="shape" transform="translate(319.397,-23.1785)">
			<title>Sheet.53</title>
			<desc>D0</desc>
			<v:userDefs/>
			<v:textBlock v:margins="rect(0.999997,0.999997,0.999997,0.999997)" v:tabSpace="42.5196"/>
			<v:textRect cx="7.08617" cy="156.907" width="14.18" height="11.3386"/>
			<rect x="0" y="151.237" width="14.1732" height="11.3386" class="st3"/>
			<text x="1.97" y="159.31" class="st4" v:langID="1033"><v:paragraph v:horizAlign="1"/><v:tabList/>D0</text>		</g>
		<g id="shape54-164" v:mID="54" v:groupContext="shape" transform="translate(215.932,-11.84)">
			<title>Sheet.54</title>
			<desc>Y2</desc>
			<v:userDefs/>
			<v:textBlock v:margins="rect(0.999997,0.999997,0.999997,0.999997)" v:tabSpace="42.5196"/>
			<v:textRect cx="5.66886" cy="156.907" width="11.34" height="11.3386"/>
			<rect x="0" y="151.237" width="11.3386" height="11.3386" class="st3"/>
			<text x="1.56" y="159.31" class="st4" v:langID="1033"><v:paragraph v:horizAlign="1"/><v:tabList/>Y<tspan dy="-0.287em"
						class="st7" v:baseFontSize="7.99998">2</tspan></text>		</g>
		<g id="shape55-168" v:mID="55" v:groupContext="shape" transform="translate(238.609,-11.84)">
			<title>Sheet.55</title>
			<desc>Y0</desc>
			<v:userDefs/>
			<v:textBlock v:margins="rect(0.999997,0.999997,0.999997,0.999997)" v:tabSpace="42.5196"/>
			<v:textRect cx="5.66886" cy="156.907" width="11.34" height="11.3386"/>
			<rect x="0" y="151.237" width="11.3386" height="11.3386" class="st3"/>
			<text x="1.56" y="159.31" class="st4" v:langID="1033"><v:paragraph v:horizAlign="1"/><v:tabList/>Y<tspan dy="-0.287em"
						class="st7" v:baseFontSize="7.99998">0</tspan></text>		</g>
		<g id="shape56-172" v:mID="56" v:groupContext="shape" transform="translate(308.058,-23.1785)">
			<title>Sheet.56</title>
			<desc>X0</desc>
			<v:userDefs/>
			<v:textBlock v:margins="rect(0.999997,0.999997,0.999997,0.999997)" v:tabSpace="42.5196"/>
			<v:textRect cx="5.66886" cy="156.907" width="11.34" height="11.3386"/>
			<rect x="0" y="151.237" width="11.3386" height="11.3386" class="st3"/>
			<text x="1.56" y="159.31" class="st4" v:langID="1033"><v:paragraph v:horizAlign="1"/><v:tabList/>X<tspan dy="-0.287em"
						class="st7" v:baseFontSize="7.99998">0</tspan></text>		</g>
		<g id="shape57-176" v:mID="57" v:groupContext="shape" transform="translate(120.972,-17.5139)">
			<title>Signal 0</title>
			<path d="M0 162.58 L14.17 162.58 L0 162.58 Z" class="st1"/>
			<path d="M0 162.58 L14.17 162.58" class="st2"/>
		</g>
		<g id="shape58-179" v:mID="58" v:groupContext="shape" transform="translate(283.397,78.0277) rotate(63.4349) scale(-1,1)">
			<title>Signal 1</title>
			<path d="M0 162.58 L4.24 162.58 L4.6 162.58 L6.34 162.58" class="st8"/>
		</g>
		<g id="shape59-185" v:mID="59" v:groupContext="shape" transform="translate(120.972,-28.8524)">
			<title>Signal 0.59</title>
			<path d="M0 162.58 L87.87 162.58 L0 162.58 Z" class="st1"/>
			<path d="M0 162.58 L87.87 162.58" class="st2"/>
		</g>
		<g id="shape60-188" v:mID="60" v:groupContext="shape" transform="translate(357.096,66.6891) rotate(63.4349) scale(-1,1)">
			<title>Signal 1.60</title>
			<path d="M0 162.58 L4.24 162.58 L4.6 162.58 L6.34 162.58" class="st8"/>
		</g>
		<g id="shape61-193" v:mID="61" v:groupContext="shape" transform="translate(120.972,-51.5295)">
			<title>Signal 0.61</title>
			<path d="M0 162.58 L11.34 162.58 L0 162.58 Z" class="st1"/>
			<path d="M0 162.58 L11.34 162.58" class="st2"/>
		</g>
		<g id="shape62-196" v:mID="62" v:groupContext="shape" transform="translate(298.754,86.6923) rotate(66.8014) scale(-1,1)">
			<title>Signal 1.62</title>
			<path d="M0 162.58 L4.24 162.58 L4.6 162.58 L43.18 162.58" class="st8"/>
		</g>
		<g id="shape63-201" v:mID="63" v:groupContext="shape" transform="translate(120.972,-85.5452)">
			<title>Signal 0.63</title>
			<path d="M0 162.58 L11.34 162.58 L0 162.58 Z" class="st1"/>
			<path d="M0 162.58 L11.34 162.58" class="st2"/>
		</g>
		<g id="shape64-204" v:mID="64" v:groupContext="shape" transform="translate(312.401,92.3729) rotate(68.9625) scale(-1,1)">
			<title>Signal 1.64</title>
			<path d="M0 162.58 L4.24 162.58 L4.6 162.58 L78.96 162.58" class="st8"/>
		</g>
		<g id="shape65-209" v:mID="65" v:groupContext="shape" transform="translate(120.972,-119.561)">
			<title>Signal 0.65</title>
			<path d="M0 162.58 L11.34 162.58 L0 162.58 Z" class="st1"/>
			<path d="M0 162.58 L11.34 162.58" class="st2"/>
		</g>
		<g id="shape66-212" v:mID="66" v:groupContext="shape" transform="translate(324.552,94.5309) rotate(69.7751) scale(-1,1)">
			<title>Signal 1.66</title>
			<path d="M0 162.58 L4.24 162.58 L4.6 162.58 L114.79 162.58" class="st8"/>
		</g>
		<g id="shape67-217" v:mID="67" v:groupContext="shape" transform="translate(120.972,-96.8837)">
			<title>Line 0.5 (0).67</title>
			<path d="M0 162.58 L87.87 162.58 L0 162.58 Z" class="st1"/>
			<path d="M0 162.58 L87.87 162.58" class="st2"/>
		</g>
		<g id="shape68-220" v:mID="68" v:groupContext="shape" transform="translate(387.994,86.2155) rotate(70.9065) scale(-1,1)">
			<title>Signal (3).68</title>
			<path d="M0 162.58 L4.24 162.58 L4.6 162.58 L77.99 162.58" class="st8"/>
		</g>
		<g id="shape69-225" v:mID="69" v:groupContext="shape" transform="translate(120.972,-62.868)">
			<title>Signal 0.67</title>
			<path d="M0 162.58 L87.87 162.58 L0 162.58 Z" class="st1"/>
			<path d="M0 162.58 L87.87 162.58" class="st2"/>
		</g>
		<g id="shape70-228" v:mID="70" v:groupContext="shape" transform="translate(376.128,84.7156) rotate(70.3462) scale(-1,1)">
			<title>Signal 1.68</title>
			<path d="M0 162.58 L4.24 162.58 L4.6 162.58 L42.14 162.58" class="st8"/>
		</g>
		<g id="shape71-233" v:mID="71" v:groupContext="shape" transform="translate(120.972,-40.1909)">
			<title>Signal 0.73</title>
			<path d="M0 162.58 L155.91 162.58 L0 162.58 Z" class="st1"/>
			<path d="M0 162.58 L155.91 162.58" class="st2"/>
		</g>
		<g id="shape72-236" v:mID="72" v:groupContext="shape" transform="translate(425.128,55.3506) rotate(63.4349) scale(-1,1)">
			<title>Signal 1.74</title>
			<path d="M0 162.58 L4.24 162.58 L4.6 162.58 L6.34 162.58" class="st8"/>
		</g>
		<g id="shape73-241" v:mID="73" v:groupContext="shape" transform="translate(120.972,-130.9)">
			<title>Signal 0.75</title>
			<path d="M0 162.58 L87.87 162.58 L0 162.58 Z" class="st1"/>
			<path d="M0 162.58 L87.87 162.58" class="st2"/>
		</g>
		<g id="shape74-244" v:mID="74" v:groupContext="shape" transform="translate(399.524,86.772) rotate(71.1139) scale(-1,1)">
			<title>Signal 1.76</title>
			<path d="M0 162.58 L4.24 162.58 L4.6 162.58 L113.85 162.58" class="st8"/>
		</g>
		<g id="shape75-249" v:mID="75" v:groupContext="shape" transform="translate(120.972,-74.2066)">
			<title>Signal 0.77</title>
			<path d="M0 162.58 L158.74 162.58 L0 162.58 Z" class="st1"/>
			<path d="M0 162.58 L158.74 162.58" class="st2"/>
		</g>
		<g id="shape76-252" v:mID="76" v:groupContext="shape" transform="translate(447.376,83.3944) rotate(74.0546) scale(-1,1)">
			<title>Signal 1.78</title>
			<path d="M0 162.58 L4.24 162.58 L4.6 162.58 L41.27 162.58" class="st8"/>
		</g>
		<g id="shape77-257" v:mID="77" v:groupContext="shape" transform="translate(120.972,-108.223)">
			<title>Signal 0.79</title>
			<path d="M0 162.58 L161.57 162.58 L0 162.58 Z" class="st1"/>
			<path d="M0 162.58 L161.57 162.58" class="st2"/>
		</g>
		<g id="shape78-260" v:mID="78" v:groupContext="shape" transform="translate(459.38,85.7921) rotate(74.9315) scale(-1,1)">
			<title>Signal 1.80</title>
			<path d="M0 162.58 L4.24 162.58 L4.6 162.58 L76.33 162.58" class="st8"/>
		</g>
		<g id="shape79-265" v:mID="79" v:groupContext="shape" transform="translate(120.972,-142.238)">
			<title>Signal 0.81</title>
			<path d="M0 162.58 L164.41 162.58 L0 162.58 Z" class="st1"/>
			<path d="M0 162.58 L164.41 162.58" class="st2"/>
		</g>
		<g id="shape80-268" v:mID="80" v:groupContext="shape" transform="translate(470.955,86.6831) rotate(75.2564) scale(-1,1)">
			<title>Signal 1.82</title>
			<path d="M0 162.58 L4.24 162.58 L4.6 162.58 L111.38 162.58" class="st8"/>
		</g>
		<g id="shape81-273" v:mID="81" v:groupContext="shape" transform="translate(333.57,-0.505999)">
			<title>Brace 1</title>
			<desc>Registers</desc>
			<v:userDefs/>
			<v:textBlock v:margins="rect(0.999997,0.999997,0.999997,0.999997)" v:tabSpace="42.5196"/>
			<v:textRect cx="30.3458" cy="145.573" width="38.02" height="11.3386"/>
			<path d="M0 128.57 L5.67 128.57 L8.5 131.4 L8.5 142.74 L11.34 145.58 L8.5 148.41 L8.5 159.75 L5.67 162.58 L0 162.58 L0
						 128.57 Z" class="st1"/>
			<path d="M0 128.57 L5.67 128.57 L8.5 131.4 L8.5 142.74 L11.34 145.58 L8.5 148.41 L8.5 159.75 L5.67 162.58 L0 162.58"
					class="st2"/>
			<text x="13.45" y="147.97" class="st4" v:langID="1033"><v:paragraph v:horizAlign="1"/><v:tabList/>Registers</text>		</g>
		<g id="shape82-277" v:mID="82" v:groupContext="shape" transform="translate(0.499999,-61.4463)">
			<title>Sheet.82</title>
			<desc>A is a packed array of 3-element structures. Each element is ...</desc>
			<v:userDefs/>
			<v:textBlock v:margins="rect(0.999997,1.99999,0.999997,0)" v:tabSpace="42.5196"/>
			<v:textRect cx="44.6452" cy="144.151" width="89.3" height="36.8503"/>
			<rect x="0" y="125.725" width="89.2911" height="36.8503" class="st3"/>
			<text x="-0" y="132.15" class="st4" v:langID="1033"><v:paragraph/><v:tabList/>A is a packed  array of <tspan x="-0"
						dy="1.2em" class="st10">3</tspan>-element structures.<v:newlineChar/><tspan x="-0" dy="1.2em" class="st10">Each element is a 16</tspan>-bit <tspan
						x="-0" dy="1.2em" class="st10">halfword.</tspan></text>		</g>
	</g>
</svg>
