<?xml version="1.0" encoding="UTF-8" standalone="no"?>
<!DOCTYPE svg PUBLIC "-//W3C//DTD SVG 1.1//EN" "http://www.w3.org/Graphics/SVG/1.1/DTD/svg11.dtd">
<!-- Generated by Microsoft Visio, SVG Export A64.trn1_trn2_doubleword_operation.svg Page-1 -->
<svg xmlns="http://www.w3.org/2000/svg" xmlns:xlink="http://www.w3.org/1999/xlink" xmlns:ev="http://www.w3.org/2001/xml-events"
		xmlns:v="http://schemas.microsoft.com/visio/2003/SVGExtensions/" width="4.30939in" height="1.82907in"
		viewBox="0 0 310.276 131.693" xml:space="preserve" color-interpolation-filters="sRGB" class="st12">
	<v:documentProperties v:langID="2057"/>

	<style type="text/css">
	<![CDATA[
		.st1 {fill:#ffffff;stroke:none;stroke-linecap:round;stroke-linejoin:round;stroke-width:0.0169691}
		.st2 {fill:#d9d9d9;stroke:none;stroke-linecap:round;stroke-linejoin:round;stroke-width:0.0169691}
		.st3 {fill:none}
		.st4 {stroke:#000000;stroke-linecap:butt;stroke-width:0.499999}
		.st5 {fill:#ffffff;stroke:none;stroke-width:0.999998;visibility:hidden}
		.st6 {fill:none;stroke:#000000;stroke-linecap:butt;stroke-width:0.799999}
		.st7 {marker-end:url(#mrkr4-43);stroke:#000000;stroke-linecap:butt;stroke-width:0.499999}
		.st8 {fill:#000000;fill-opacity:1;stroke:#000000;stroke-opacity:1;stroke-width:0.21739099429745}
		.st9 {fill:none;stroke:none;stroke-linecap:butt;stroke-width:0.499999}
		.st10 {fill:#000000;font-family:Arial;font-size:0.666664em}
		.st11 {marker-start:url(#mrkr4-96);stroke:#000000;stroke-linecap:butt;stroke-width:0.499999}
		.st12 {fill:none;fill-rule:evenodd;font-size:12px;overflow:visible;stroke-linecap:square;stroke-miterlimit:3}
	]]>
	</style>

	<defs id="Markers">
		<g id="lend4">
			<path d="M 2 1 L 0 0 L 2 -1 L 2 1 " style="stroke:none"/>
		</g>
		<marker id="mrkr4-43" class="st8" v:arrowType="4" v:arrowSize="1" v:setback="0" refX="-0" orient="auto"
				markerUnits="strokeWidth" overflow="visible">
			<use xlink:href="#lend4" transform="scale(-4.6000065606753,-4.6000065606753) "/>
		</marker>
		<marker id="mrkr4-96" class="st8" v:arrowType="4" v:arrowSize="1" v:setback="0" refX="0" orient="auto"
				markerUnits="strokeWidth" overflow="visible">
			<use xlink:href="#lend4" transform="scale(4.6000065606753) "/>
		</marker>
	</defs>
	<g v:mID="0" v:index="1" v:groupContext="foregroundPage">
		<title>Page-1</title>
		<v:pageProperties v:drawingScale="0.0393701" v:pageScale="0.0393701" v:drawingUnits="24" v:shadowOffsetX="0"
				v:shadowOffsetY="0" v:shadowType="1" v:shadowScale="0"/>
		<g id="shape1-1" v:mID="1" v:groupContext="shape" transform="translate(281.129,-46.1542)">
			<title>Sheet.1</title>
			<rect x="0" y="120.355" width="28.3464" height="11.3386" class="st1"/>
		</g>
		<g id="shape2-3" v:mID="2" v:groupContext="shape" transform="translate(252.783,-46.1542)">
			<title>Sheet.2</title>
			<rect x="0" y="120.355" width="28.3464" height="11.3386" class="st1"/>
		</g>
		<g id="shape3-5" v:mID="3" v:groupContext="shape" transform="translate(224.437,-46.1542)">
			<title>Sheet.3</title>
			<rect x="0" y="120.355" width="28.3464" height="11.3386" class="st1"/>
		</g>
		<g id="shape4-7" v:mID="4" v:groupContext="shape" transform="translate(196.091,-46.1542)">
			<title>Sheet.4</title>
			<rect x="0" y="120.355" width="28.3464" height="11.3386" class="st1"/>
		</g>
		<g id="shape5-9" v:mID="5" v:groupContext="shape" transform="translate(20.3425,-46.1542)">
			<title>Sheet.5</title>
			<rect x="0" y="120.355" width="28.3464" height="11.3386" class="st1"/>
		</g>
		<g id="shape6-11" v:mID="6" v:groupContext="shape" transform="translate(48.6889,-46.1542)">
			<title>Sheet.6</title>
			<rect x="0" y="120.355" width="28.3464" height="11.3386" class="st1"/>
		</g>
		<g id="group7-13" transform="translate(77.0353,-46.1542)" v:mID="7" v:groupContext="group">
			<title>Sheet.7</title>
			<g id="shape8-14" v:mID="8" v:groupContext="shape">
				<title>Sheet.8</title>
				<rect x="0" y="120.355" width="28.3464" height="11.3386" class="st1"/>
			</g>
		</g>
		<g id="shape9-16" v:mID="9" v:groupContext="shape" transform="translate(105.382,-46.1542)">
			<title>Sheet.9</title>
			<rect x="0" y="120.355" width="28.3464" height="11.3386" class="st1"/>
		</g>
		<g id="shape10-18" v:mID="10" v:groupContext="shape" transform="translate(20.3425,-0.799999)">
			<title>Sheet.10</title>
			<rect x="0" y="120.355" width="28.3464" height="11.3386" class="st2"/>
		</g>
		<g id="shape11-20" v:mID="11" v:groupContext="shape" transform="translate(77.0353,-0.799999)">
			<title>Sheet.11</title>
			<rect x="0" y="120.355" width="28.3464" height="11.3386" class="st2"/>
		</g>
		<g id="shape12-22" v:mID="12" v:groupContext="shape" transform="translate(20.3425,-97.1778)">
			<title>Sheet.12</title>
			<rect x="0" y="120.355" width="28.3464" height="11.3386" class="st2"/>
		</g>
		<g id="shape13-24" v:mID="13" v:groupContext="shape" transform="translate(48.6889,-46.1578)">
			<title>Sheet.13</title>
			<path d="M0 120.36 L0 131.69 L0 120.36 Z" class="st3"/>
			<path d="M0 120.36 L0 131.69" class="st4"/>
		</g>
		<g id="shape14-27" v:mID="14" v:groupContext="shape" transform="translate(77.0353,-46.1578)">
			<title>Sheet.14</title>
			<path d="M0 120.36 L0 131.69 L0 120.36 Z" class="st3"/>
			<path d="M0 120.36 L0 131.69" class="st4"/>
		</g>
		<g id="group15-30" transform="translate(20.3425,-46.1542)" v:mID="15" v:groupContext="group">
			<title>Sheet.15</title>
			<g id="shape16-31" v:mID="16" v:groupContext="shape">
				<title>Sheet.16</title>
				<rect x="0" y="120.355" width="113.386" height="11.3386" class="st5"/>
			</g>
			<g id="shape17-33" v:mID="17" v:groupContext="shape">
				<title>Sheet.17</title>
				<rect x="0" y="120.355" width="113.386" height="11.3386" class="st6"/>
			</g>
		</g>
		<g id="shape18-35" v:mID="18" v:groupContext="shape" transform="translate(105.382,-46.1578)">
			<title>Sheet.18</title>
			<path d="M0 120.36 L0 131.69 L0 120.36 Z" class="st3"/>
			<path d="M0 120.36 L0 131.69" class="st4"/>
		</g>
		<g id="shape19-38" v:mID="19" v:groupContext="shape" transform="translate(197.394,34.5156) rotate(90)">
			<title>Signal 2.56</title>
			<path d="M0 131.69 L35.09 131.69 L39.69 131.69" class="st7"/>
		</g>
		<g id="shape20-44" v:mID="20" v:groupContext="shape" transform="translate(102.547,-57.4928)">
			<title>Sheet.20</title>
			<desc>0</desc>
			<v:userDefs/>
			<v:textBlock v:margins="rect(0.999998,0.999998,0.999998,0.999998)" v:tabSpace="42.5196"/>
			<v:textRect cx="14.1729" cy="126.024" width="28.35" height="11.3386"/>
			<rect x="0" y="120.355" width="28.3464" height="11.3386" class="st9"/>
			<text x="11.95" y="128.42" class="st10" v:langID="1033"><v:paragraph v:horizAlign="1"/><v:tabList/>0</text>		</g>
		<g id="shape21-47" v:mID="21" v:groupContext="shape" transform="translate(77.0353,-57.4928)">
			<title>Sheet.21</title>
			<desc>1</desc>
			<v:userDefs/>
			<v:textBlock v:margins="rect(0.999998,0.999998,0.999998,0.999998)" v:tabSpace="42.5196"/>
			<v:textRect cx="14.1729" cy="126.024" width="28.35" height="11.3386"/>
			<rect x="0" y="120.355" width="28.3464" height="11.3386" class="st9"/>
			<text x="11.95" y="128.42" class="st10" v:langID="1033"><v:paragraph v:horizAlign="1"/><v:tabList/>1</text>		</g>
		<g id="shape22-50" v:mID="22" v:groupContext="shape" transform="translate(45.8542,-57.4928)">
			<title>Sheet.22</title>
			<desc>2</desc>
			<v:userDefs/>
			<v:textBlock v:margins="rect(0.999998,0.999998,0.999998,0.999998)" v:tabSpace="42.5196"/>
			<v:textRect cx="14.1729" cy="126.024" width="28.35" height="11.3386"/>
			<rect x="0" y="120.355" width="28.3464" height="11.3386" class="st9"/>
			<text x="11.95" y="128.42" class="st10" v:langID="1033"><v:paragraph v:horizAlign="1"/><v:tabList/>2</text>		</g>
		<g id="shape23-53" v:mID="23" v:groupContext="shape" transform="translate(20.3425,-57.4928)">
			<title>Sheet.23</title>
			<desc>3</desc>
			<v:userDefs/>
			<v:textBlock v:margins="rect(0.999998,0.999998,0.999998,0.999998)" v:tabSpace="42.5196"/>
			<v:textRect cx="14.1729" cy="126.024" width="28.35" height="11.3386"/>
			<rect x="0" y="120.355" width="28.3464" height="11.3386" class="st9"/>
			<text x="11.95" y="128.42" class="st10" v:langID="1033"><v:paragraph v:horizAlign="1"/><v:tabList/>3</text>		</g>
		<g id="group24-56" transform="translate(20.3425,-97.1778)" v:mID="24" v:groupContext="group">
			<title>Sheet.24</title>
			<g id="shape25-57" v:mID="25" v:groupContext="shape" transform="translate(56.6928,0)">
				<title>Sheet.25</title>
				<rect x="0" y="120.355" width="28.3464" height="11.3386" class="st2"/>
			</g>
			<g id="shape26-59" v:mID="26" v:groupContext="shape" transform="translate(28.3464,0)">
				<title>Sheet.26</title>
				<rect x="0" y="120.355" width="28.3464" height="11.3386" class="st1"/>
			</g>
			<g id="shape27-61" v:mID="27" v:groupContext="shape" transform="translate(28.3464,-0.00359999)">
				<title>Sheet.27</title>
				<path d="M0 120.36 L0 131.69 L0 120.36 Z" class="st3"/>
				<path d="M0 120.36 L0 131.69" class="st4"/>
			</g>
			<g id="shape28-64" v:mID="28" v:groupContext="shape" transform="translate(85.0392,0)">
				<title>Sheet.28</title>
				<rect x="0" y="120.355" width="28.3464" height="11.3386" class="st1"/>
			</g>
			<g id="shape29-66" v:mID="29" v:groupContext="shape" transform="translate(56.6928,-0.00359999)">
				<title>Sheet.29</title>
				<path d="M0 120.36 L0 131.69 L0 120.36 Z" class="st3"/>
				<path d="M0 120.36 L0 131.69" class="st4"/>
			</g>
			<g id="group30-69" v:mID="30" v:groupContext="group">
				<title>Sheet.30</title>
				<g id="shape31-70" v:mID="31" v:groupContext="shape">
					<title>Sheet.31</title>
					<rect x="0" y="120.355" width="113.386" height="11.3386" class="st5"/>
				</g>
				<g id="shape32-72" v:mID="32" v:groupContext="shape">
					<title>Sheet.32</title>
					<rect x="0" y="120.355" width="113.386" height="11.3386" class="st6"/>
				</g>
			</g>
			<g id="shape33-74" v:mID="33" v:groupContext="shape" transform="translate(85.0392,-0.00359999)">
				<title>Sheet.33</title>
				<path d="M0 120.36 L0 131.69 L0 120.36 Z" class="st3"/>
				<path d="M0 120.36 L0 131.69" class="st4"/>
			</g>
		</g>
		<g id="shape34-77" v:mID="34" v:groupContext="shape" transform="translate(254.086,34.5156) rotate(90)">
			<title>Signal 2.69</title>
			<path d="M0 131.69 L35.09 131.69 L39.69 131.69" class="st7"/>
		</g>
		<g id="shape35-82" v:mID="35" v:groupContext="shape" transform="translate(0.499999,-97.1778)">
			<title>Sheet.35</title>
			<desc>Vn</desc>
			<v:userDefs/>
			<v:textBlock v:margins="rect(0.999998,2,0.999998,0)" v:tabSpace="42.5196"/>
			<v:textRect cx="8.5036" cy="126.024" width="17.01" height="11.3386"/>
			<rect x="0" y="120.355" width="17.0079" height="11.3386" class="st9"/>
			<text x="5.22" y="128.42" class="st10" v:langID="1033"><v:paragraph v:horizAlign="2"/><v:tabList/>Vn</text>		</g>
		<g id="shape36-85" v:mID="36" v:groupContext="shape" transform="translate(0.499999,-46.1542)">
			<title>Sheet.36</title>
			<desc>Vd</desc>
			<v:userDefs/>
			<v:textBlock v:margins="rect(0.999998,2,0.999998,0)" v:tabSpace="42.5196"/>
			<v:textRect cx="8.5036" cy="126.024" width="17.01" height="11.3386"/>
			<rect x="0" y="120.355" width="17.0079" height="11.3386" class="st9"/>
			<text x="5.22" y="128.42" class="st10" v:langID="1033"><v:paragraph v:horizAlign="2"/><v:tabList/>Vd</text>		</g>
		<g id="shape37-88" v:mID="37" v:groupContext="shape" transform="translate(9.00392,-119.855)">
			<title>Sheet.37</title>
			<desc>TRN1.16</desc>
			<v:userDefs/>
			<v:textBlock v:margins="rect(0.999998,0,0.999998,2)" v:tabSpace="42.5196"/>
			<v:textRect cx="18.4248" cy="126.024" width="36.86" height="11.3386"/>
			<rect x="0" y="120.355" width="36.8503" height="11.3386" class="st9"/>
			<text x="1.99" y="128.42" class="st10" v:langID="1033"><v:paragraph/><v:tabList/>TRN1.16</text>		</g>
		<g id="shape38-91" v:mID="38" v:groupContext="shape" transform="translate(192.381,1.22881) rotate(50.1944)">
			<title>Signal 2.73</title>
			<path d="M0 131.69 L4.24 131.69 L4.6 131.69 L44.28 131.69" class="st11"/>
		</g>
		<g id="shape39-97" v:mID="39" v:groupContext="shape" transform="translate(48.6889,-0.799999)">
			<title>Sheet.39</title>
			<rect x="0" y="120.355" width="28.3464" height="11.3386" class="st1"/>
		</g>
		<g id="shape40-99" v:mID="40" v:groupContext="shape" transform="translate(48.6889,-0.803599)">
			<title>Sheet.40</title>
			<path d="M0 120.36 L0 131.69 L0 120.36 Z" class="st3"/>
			<path d="M0 120.36 L0 131.69" class="st4"/>
		</g>
		<g id="shape41-102" v:mID="41" v:groupContext="shape" transform="translate(105.382,-0.799999)">
			<title>Sheet.41</title>
			<rect x="0" y="120.355" width="28.3464" height="11.3386" class="st1"/>
		</g>
		<g id="shape42-104" v:mID="42" v:groupContext="shape" transform="translate(77.0353,-0.803599)">
			<title>Sheet.42</title>
			<path d="M0 120.36 L0 131.69 L0 120.36 Z" class="st3"/>
			<path d="M0 120.36 L0 131.69" class="st4"/>
		</g>
		<g id="group43-107" transform="translate(20.3425,-0.799999)" v:mID="43" v:groupContext="group">
			<title>Sheet.43</title>
			<g id="shape44-108" v:mID="44" v:groupContext="shape">
				<title>Sheet.44</title>
				<rect x="0" y="120.355" width="113.386" height="11.3386" class="st5"/>
			</g>
			<g id="shape45-110" v:mID="45" v:groupContext="shape">
				<title>Sheet.45</title>
				<rect x="0" y="120.355" width="113.386" height="11.3386" class="st6"/>
			</g>
		</g>
		<g id="shape46-112" v:mID="46" v:groupContext="shape" transform="translate(105.382,-0.803599)">
			<title>Sheet.46</title>
			<path d="M0 120.36 L0 131.69 L0 120.36 Z" class="st3"/>
			<path d="M0 120.36 L0 131.69" class="st4"/>
		</g>
		<g id="shape47-115" v:mID="47" v:groupContext="shape" transform="translate(135.689,1.22881) rotate(50.1944)">
			<title>Signal 2.80</title>
			<path d="M0 131.69 L4.24 131.69 L4.6 131.69 L44.28 131.69" class="st11"/>
		</g>
		<g id="shape48-120" v:mID="48" v:groupContext="shape" transform="translate(1.91732,-0.799999)">
			<title>Sheet.48</title>
			<desc>Vm</desc>
			<v:userDefs/>
			<v:textBlock v:margins="rect(0.999998,2,0.999998,0)" v:tabSpace="42.5196"/>
			<v:textRect cx="8.5036" cy="126.024" width="17.01" height="11.3386"/>
			<rect x="0" y="120.355" width="17.0079" height="11.3386" class="st9"/>
			<text x="3.01" y="128.42" class="st10" v:langID="1033"><v:paragraph v:horizAlign="2"/><v:tabList/>Vm</text>		</g>
		<g id="shape49-123" v:mID="49" v:groupContext="shape" transform="translate(224.437,-0.799999)">
			<title>Sheet.49</title>
			<rect x="0" y="120.355" width="28.3464" height="11.3386" class="st2"/>
		</g>
		<g id="shape50-125" v:mID="50" v:groupContext="shape" transform="translate(281.129,-0.799999)">
			<title>Sheet.50</title>
			<rect x="0" y="120.355" width="28.3464" height="11.3386" class="st2"/>
		</g>
		<g id="shape51-127" v:mID="51" v:groupContext="shape" transform="translate(224.437,-97.1778)">
			<title>Sheet.51</title>
			<rect x="0" y="120.355" width="28.3464" height="11.3386" class="st2"/>
		</g>
		<g id="shape52-129" v:mID="52" v:groupContext="shape" transform="translate(224.437,-46.1578)">
			<title>Sheet.52</title>
			<path d="M0 120.36 L0 131.69 L0 120.36 Z" class="st3"/>
			<path d="M0 120.36 L0 131.69" class="st4"/>
		</g>
		<g id="shape53-132" v:mID="53" v:groupContext="shape" transform="translate(252.783,-46.1578)">
			<title>Sheet.53</title>
			<path d="M0 120.36 L0 131.69 L0 120.36 Z" class="st3"/>
			<path d="M0 120.36 L0 131.69" class="st4"/>
		</g>
		<g id="group54-135" transform="translate(196.091,-46.1542)" v:mID="54" v:groupContext="group">
			<title>Sheet.54</title>
			<g id="shape55-136" v:mID="55" v:groupContext="shape">
				<title>Sheet.55</title>
				<rect x="0" y="120.355" width="113.386" height="11.3386" class="st5"/>
			</g>
			<g id="shape56-138" v:mID="56" v:groupContext="shape">
				<title>Sheet.56</title>
				<rect x="0" y="120.355" width="113.386" height="11.3386" class="st6"/>
			</g>
		</g>
		<g id="shape57-140" v:mID="57" v:groupContext="shape" transform="translate(281.129,-46.1578)">
			<title>Sheet.57</title>
			<path d="M0 120.36 L0 131.69 L0 120.36 Z" class="st3"/>
			<path d="M0 120.36 L0 131.69" class="st4"/>
		</g>
		<g id="shape58-143" v:mID="58" v:groupContext="shape" transform="translate(321.044,-36.7005) rotate(57.2648)">
			<title>Signal 2.93</title>
			<path d="M0 131.69 L42.58 131.69 L47.18 131.69" class="st7"/>
		</g>
		<g id="shape59-148" v:mID="59" v:groupContext="shape" transform="translate(281.129,-57.4928)">
			<title>Sheet.59</title>
			<desc>0</desc>
			<v:userDefs/>
			<v:textBlock v:margins="rect(0.999998,0.999998,0.999998,0.999998)" v:tabSpace="42.5196"/>
			<v:textRect cx="14.1729" cy="126.024" width="28.35" height="11.3386"/>
			<rect x="0" y="120.355" width="28.3464" height="11.3386" class="st9"/>
			<text x="11.95" y="128.42" class="st10" v:langID="1033"><v:paragraph v:horizAlign="1"/><v:tabList/>0</text>		</g>
		<g id="shape60-151" v:mID="60" v:groupContext="shape" transform="translate(252.783,-57.4928)">
			<title>Sheet.60</title>
			<desc>1</desc>
			<v:userDefs/>
			<v:textBlock v:margins="rect(0.999998,0.999998,0.999998,0.999998)" v:tabSpace="42.5196"/>
			<v:textRect cx="14.1729" cy="126.024" width="28.35" height="11.3386"/>
			<rect x="0" y="120.355" width="28.3464" height="11.3386" class="st9"/>
			<text x="11.95" y="128.42" class="st10" v:langID="1033"><v:paragraph v:horizAlign="1"/><v:tabList/>1</text>		</g>
		<g id="shape61-154" v:mID="61" v:groupContext="shape" transform="translate(224.437,-57.4928)">
			<title>Sheet.61</title>
			<desc>2</desc>
			<v:userDefs/>
			<v:textBlock v:margins="rect(0.999998,0.999998,0.999998,0.999998)" v:tabSpace="42.5196"/>
			<v:textRect cx="14.1729" cy="126.024" width="28.35" height="11.3386"/>
			<rect x="0" y="120.355" width="28.3464" height="11.3386" class="st9"/>
			<text x="11.95" y="128.42" class="st10" v:langID="1033"><v:paragraph v:horizAlign="1"/><v:tabList/>2</text>		</g>
		<g id="shape62-157" v:mID="62" v:groupContext="shape" transform="translate(196.091,-57.4928)">
			<title>Sheet.62</title>
			<desc>3</desc>
			<v:userDefs/>
			<v:textBlock v:margins="rect(0.999998,0.999998,0.999998,0.999998)" v:tabSpace="42.5196"/>
			<v:textRect cx="14.1729" cy="126.024" width="28.35" height="11.3386"/>
			<rect x="0" y="120.355" width="28.3464" height="11.3386" class="st9"/>
			<text x="11.95" y="128.42" class="st10" v:langID="1033"><v:paragraph v:horizAlign="1"/><v:tabList/>3</text>		</g>
		<g id="group63-160" transform="translate(196.091,-97.1778)" v:mID="63" v:groupContext="group">
			<title>Sheet.63</title>
			<g id="shape64-161" v:mID="64" v:groupContext="shape">
				<title>Sheet.64</title>
				<rect x="0" y="120.355" width="28.3464" height="11.3386" class="st1"/>
			</g>
			<g id="shape65-163" v:mID="65" v:groupContext="shape" transform="translate(85.0392,2.84217E-14)">
				<title>Sheet.65</title>
				<rect x="0" y="120.355" width="28.3464" height="11.3386" class="st2"/>
			</g>
			<g id="shape66-165" v:mID="66" v:groupContext="shape" transform="translate(28.3464,-0.00359999)">
				<title>Sheet.66</title>
				<path d="M0 120.36 L0 131.69 L0 120.36 Z" class="st3"/>
				<path d="M0 120.36 L0 131.69" class="st4"/>
			</g>
			<g id="shape67-168" v:mID="67" v:groupContext="shape" transform="translate(56.6928,-1.7053E-13)">
				<title>Sheet.67</title>
				<rect x="0" y="120.355" width="28.3464" height="11.3386" class="st1"/>
			</g>
			<g id="shape68-170" v:mID="68" v:groupContext="shape" transform="translate(56.6928,-0.00359999)">
				<title>Sheet.68</title>
				<path d="M0 120.36 L0 131.69 L0 120.36 Z" class="st3"/>
				<path d="M0 120.36 L0 131.69" class="st4"/>
			</g>
			<g id="group69-173" v:mID="69" v:groupContext="group">
				<title>Sheet.69</title>
				<g id="shape70-174" v:mID="70" v:groupContext="shape">
					<title>Sheet.70</title>
					<rect x="0" y="120.355" width="113.386" height="11.3386" class="st5"/>
				</g>
				<g id="shape71-176" v:mID="71" v:groupContext="shape">
					<title>Sheet.71</title>
					<rect x="0" y="120.355" width="113.386" height="11.3386" class="st6"/>
				</g>
			</g>
			<g id="shape72-178" v:mID="72" v:groupContext="shape" transform="translate(85.0392,-0.00359999)">
				<title>Sheet.72</title>
				<path d="M0 120.36 L0 131.69 L0 120.36 Z" class="st3"/>
				<path d="M0 120.36 L0 131.69" class="st4"/>
			</g>
		</g>
		<g id="shape73-181" v:mID="73" v:groupContext="shape" transform="translate(377.737,-36.7005) rotate(57.2648)">
			<title>Signal 2.106</title>
			<path d="M0 131.69 L42.58 131.69 L47.18 131.69" class="st7"/>
		</g>
		<g id="shape74-186" v:mID="74" v:groupContext="shape" transform="translate(176.248,-97.1778)">
			<title>Sheet.74</title>
			<desc>Vn</desc>
			<v:userDefs/>
			<v:textBlock v:margins="rect(0.999998,2,0.999998,0)" v:tabSpace="42.5196"/>
			<v:textRect cx="8.5036" cy="126.024" width="17.01" height="11.3386"/>
			<rect x="0" y="120.355" width="17.0079" height="11.3386" class="st9"/>
			<text x="5.22" y="128.42" class="st10" v:langID="1033"><v:paragraph v:horizAlign="2"/><v:tabList/>Vn</text>		</g>
		<g id="shape75-189" v:mID="75" v:groupContext="shape" transform="translate(176.248,-46.1542)">
			<title>Sheet.75</title>
			<desc>Vd</desc>
			<v:userDefs/>
			<v:textBlock v:margins="rect(0.999998,2,0.999998,0)" v:tabSpace="42.5196"/>
			<v:textRect cx="8.5036" cy="126.024" width="17.01" height="11.3386"/>
			<rect x="0" y="120.355" width="17.0079" height="11.3386" class="st9"/>
			<text x="5.22" y="128.42" class="st10" v:langID="1033"><v:paragraph v:horizAlign="2"/><v:tabList/>Vd</text>		</g>
		<g id="shape76-192" v:mID="76" v:groupContext="shape" transform="translate(184.752,-119.855)">
			<title>Sheet.76</title>
			<desc>TRN2.16</desc>
			<v:userDefs/>
			<v:textBlock v:margins="rect(0.999998,0,0.999998,2)" v:tabSpace="42.5196"/>
			<v:textRect cx="18.4248" cy="126.024" width="36.86" height="11.3386"/>
			<rect x="0" y="120.355" width="36.8503" height="11.3386" class="st9"/>
			<text x="1.99" y="128.42" class="st10" v:langID="1033"><v:paragraph/><v:tabList/>TRN2.16</text>		</g>
		<g id="shape77-195" v:mID="77" v:groupContext="shape" transform="translate(399.426,85.5392) rotate(90)">
			<title>Signal 2.110</title>
			<path d="M0 131.69 L4.24 131.69 L4.6 131.69 L34.02 131.69" class="st11"/>
		</g>
		<g id="shape78-200" v:mID="78" v:groupContext="shape" transform="translate(196.091,-0.799999)">
			<title>Sheet.78</title>
			<rect x="0" y="120.355" width="28.3464" height="11.3386" class="st1"/>
		</g>
		<g id="shape79-202" v:mID="79" v:groupContext="shape" transform="translate(224.437,-0.803599)">
			<title>Sheet.79</title>
			<path d="M0 120.36 L0 131.69 L0 120.36 Z" class="st3"/>
			<path d="M0 120.36 L0 131.69" class="st4"/>
		</g>
		<g id="shape80-205" v:mID="80" v:groupContext="shape" transform="translate(252.783,-0.799999)">
			<title>Sheet.80</title>
			<rect x="0" y="120.355" width="28.3464" height="11.3386" class="st1"/>
		</g>
		<g id="shape81-207" v:mID="81" v:groupContext="shape" transform="translate(252.783,-0.803599)">
			<title>Sheet.81</title>
			<path d="M0 120.36 L0 131.69 L0 120.36 Z" class="st3"/>
			<path d="M0 120.36 L0 131.69" class="st4"/>
		</g>
		<g id="group82-210" transform="translate(196.091,-0.799999)" v:mID="82" v:groupContext="group">
			<title>Sheet.82</title>
			<g id="shape83-211" v:mID="83" v:groupContext="shape">
				<title>Sheet.83</title>
				<rect x="0" y="120.355" width="113.386" height="11.3386" class="st5"/>
			</g>
			<g id="shape84-213" v:mID="84" v:groupContext="shape">
				<title>Sheet.84</title>
				<rect x="0" y="120.355" width="113.386" height="11.3386" class="st6"/>
			</g>
		</g>
		<g id="shape85-215" v:mID="85" v:groupContext="shape" transform="translate(281.129,-0.803599)">
			<title>Sheet.85</title>
			<path d="M0 120.36 L0 131.69 L0 120.36 Z" class="st3"/>
			<path d="M0 120.36 L0 131.69" class="st4"/>
		</g>
		<g id="shape86-218" v:mID="86" v:groupContext="shape" transform="translate(341.96,85.5392) rotate(90)">
			<title>Signal 2.117</title>
			<path d="M0 131.69 L4.24 131.69 L4.6 131.69 L34.02 131.69" class="st11"/>
		</g>
		<g id="shape87-223" v:mID="87" v:groupContext="shape" transform="translate(177.665,-0.799999)">
			<title>Sheet.87</title>
			<desc>Vm</desc>
			<v:userDefs/>
			<v:textBlock v:margins="rect(0.999998,2,0.999998,0)" v:tabSpace="42.5196"/>
			<v:textRect cx="8.5036" cy="126.024" width="17.01" height="11.3386"/>
			<rect x="0" y="120.355" width="17.0079" height="11.3386" class="st9"/>
			<text x="3.01" y="128.42" class="st10" v:langID="1033"><v:paragraph v:horizAlign="2"/><v:tabList/>Vm</text>		</g>
	</g>
</svg>
