<?xml version="1.0" encoding="UTF-8" standalone="no"?>
<!DOCTYPE svg PUBLIC "-//W3C//DTD SVG 1.1//EN" "http://www.w3.org/Graphics/SVG/1.1/DTD/svg11.dtd">
<!-- Generated by Microsoft Visio, SVG Export A64.ext_doubleword_operation_for_imm3.svg Page-1 -->
<svg xmlns="http://www.w3.org/2000/svg" xmlns:xlink="http://www.w3.org/1999/xlink" xmlns:ev="http://www.w3.org/2001/xml-events"
		xmlns:v="http://schemas.microsoft.com/visio/2003/SVGExtensions/" width="3.01017in" height="1.27095in"
		viewBox="0 0 216.732 91.5084" xml:space="preserve" color-interpolation-filters="sRGB" class="st9">
	<v:documentProperties v:langID="2057"/>

	<style type="text/css">
	<![CDATA[
		.st1 {fill:#000000;font-family:Arial;font-size:0.666664em}
		.st2 {fill:none;stroke:none;stroke-width:0.999997;visibility:hidden}
		.st3 {fill:none;stroke:#000000;stroke-linecap:butt;stroke-width:0.799997}
		.st4 {fill:none}
		.st5 {stroke:#000000;stroke-linecap:butt;stroke-width:0.499998}
		.st6 {fill:none;stroke:none;stroke-linecap:butt;stroke-width:0.499998}
		.st7 {marker-start:url(#mrkr4-125);stroke:#000000;stroke-linecap:butt;stroke-width:0.499998}
		.st8 {fill:#000000;fill-opacity:1;stroke:#000000;stroke-opacity:1;stroke-width:0.21739074658956}
		.st9 {fill:none;fill-rule:evenodd;font-size:12px;overflow:visible;stroke-linecap:square;stroke-miterlimit:3}
	]]>
	</style>

	<defs id="Markers">
		<g id="lend4">
			<path d="M 2 1 L 0 0 L 2 -1 L 2 1 " style="stroke:none"/>
		</g>
		<marker id="mrkr4-125" class="st8" v:arrowType="4" v:arrowSize="1" v:setback="0" refX="0" orient="auto"
				markerUnits="strokeWidth" overflow="visible">
			<use xlink:href="#lend4" transform="scale(4.6000118021952) "/>
		</marker>
	</defs>
	<g v:mID="0" v:index="1" v:groupContext="foregroundPage">
		<title>Page-1</title>
		<v:pageProperties v:drawingScale="0.0393701" v:pageScale="0.0393701" v:drawingUnits="24" v:shadowOffsetX="8.50391"
				v:shadowOffsetY="-8.50391"/>
		<g id="shape1-1" v:mID="1" v:groupContext="shape" transform="translate(125.198,-80.1698)">
			<title>Sheet.1</title>
			<desc>7</desc>
			<v:userDefs/>
			<v:textBlock v:margins="rect(0,0,0,0)" v:tabSpace="42.5196"/>
			<v:textRect cx="5.69498" cy="85.8391" width="11.39" height="11.3386"/>
			<text x="3.47" y="88.24" class="st1" v:langID="1033"><v:paragraph v:horizAlign="1"/><v:tabList/>7</text>		</g>
		<g id="shape2-3" v:mID="2" v:groupContext="shape" transform="translate(136.537,-80.1698)">
			<title>Sheet.2</title>
			<desc>6</desc>
			<v:userDefs/>
			<v:textBlock v:margins="rect(0,0,0,0)" v:tabSpace="42.5196"/>
			<v:textRect cx="5.69498" cy="85.8391" width="11.39" height="11.3386"/>
			<text x="3.47" y="88.24" class="st1" v:langID="1033"><v:paragraph v:horizAlign="1"/><v:tabList/>6</text>		</g>
		<g id="shape3-5" v:mID="3" v:groupContext="shape" transform="translate(147.875,-80.1698)">
			<title>Sheet.3</title>
			<desc>5</desc>
			<v:userDefs/>
			<v:textBlock v:margins="rect(0,0,0,0)" v:tabSpace="42.5196"/>
			<v:textRect cx="5.69498" cy="85.8391" width="11.39" height="11.3386"/>
			<text x="3.47" y="88.24" class="st1" v:langID="1033"><v:paragraph v:horizAlign="1"/><v:tabList/>5</text>		</g>
		<g id="shape4-7" v:mID="4" v:groupContext="shape" transform="translate(159.213,-80.1698)">
			<title>Sheet.4</title>
			<desc>4</desc>
			<v:userDefs/>
			<v:textBlock v:margins="rect(0,0,0,0)" v:tabSpace="42.5196"/>
			<v:textRect cx="5.69498" cy="85.8391" width="11.39" height="11.3386"/>
			<text x="3.47" y="88.24" class="st1" v:langID="1033"><v:paragraph v:horizAlign="1"/><v:tabList/>4</text>		</g>
		<g id="shape5-9" v:mID="5" v:groupContext="shape" transform="translate(170.552,-80.1698)">
			<title>Sheet.5</title>
			<desc>3</desc>
			<v:userDefs/>
			<v:textBlock v:margins="rect(0,0,0,0)" v:tabSpace="42.5196"/>
			<v:textRect cx="5.69498" cy="85.8391" width="11.39" height="11.3386"/>
			<text x="3.47" y="88.24" class="st1" v:langID="1033"><v:paragraph v:horizAlign="1"/><v:tabList/>3</text>		</g>
		<g id="shape6-11" v:mID="6" v:groupContext="shape" transform="translate(181.89,-80.1698)">
			<title>Sheet.6</title>
			<desc>2</desc>
			<v:userDefs/>
			<v:textBlock v:margins="rect(0,0,0,0)" v:tabSpace="42.5196"/>
			<v:textRect cx="5.69498" cy="85.8391" width="11.39" height="11.3386"/>
			<text x="3.47" y="88.24" class="st1" v:langID="1033"><v:paragraph v:horizAlign="1"/><v:tabList/>2</text>		</g>
		<g id="shape7-13" v:mID="7" v:groupContext="shape" transform="translate(193.229,-80.1698)">
			<title>Sheet.7</title>
			<desc>1</desc>
			<v:userDefs/>
			<v:textBlock v:margins="rect(0,0,0,0)" v:tabSpace="42.5196"/>
			<v:textRect cx="5.69498" cy="85.8391" width="11.39" height="11.3386"/>
			<text x="3.47" y="88.24" class="st1" v:langID="1033"><v:paragraph v:horizAlign="1"/><v:tabList/>1</text>		</g>
		<g id="shape8-15" v:mID="8" v:groupContext="shape" transform="translate(204.567,-80.1698)">
			<title>Sheet.8</title>
			<desc>0</desc>
			<v:userDefs/>
			<v:textBlock v:margins="rect(0,0,0,0)" v:tabSpace="42.5196"/>
			<v:textRect cx="5.69498" cy="85.8391" width="11.39" height="11.3386"/>
			<text x="3.47" y="88.24" class="st1" v:langID="1033"><v:paragraph v:horizAlign="1"/><v:tabList/>0</text>		</g>
		<g id="group9-17" transform="translate(125.224,-63.162)" v:mID="9" v:groupContext="group">
			<title>Sheet.9</title>
			<g id="shape10-18" v:mID="10" v:groupContext="shape">
				<title>Sheet.10</title>
				<rect x="0" y="74.5006" width="90.7084" height="17.0078" class="st2"/>
			</g>
			<g id="shape11-20" v:mID="11" v:groupContext="shape">
				<title>Sheet.11</title>
				<rect x="0" y="74.5006" width="90.7084" height="17.0078" class="st3"/>
			</g>
		</g>
		<g id="shape12-22" v:mID="12" v:groupContext="shape" transform="translate(136.563,-63.1607)">
			<title>Sheet.12</title>
			<path d="M0 74.5 L0 91.51 L0 74.5 Z" class="st4"/>
			<path d="M0 74.5 L0 91.51" class="st5"/>
		</g>
		<g id="shape13-25" v:mID="13" v:groupContext="shape" transform="translate(147.902,-63.1607)">
			<title>Sheet.13</title>
			<path d="M0 74.5 L0 91.51 L0 74.5 Z" class="st4"/>
			<path d="M0 74.5 L0 91.51" class="st5"/>
		</g>
		<g id="shape14-28" v:mID="14" v:groupContext="shape" transform="translate(159.239,-63.1607)">
			<title>Sheet.14</title>
			<path d="M0 74.5 L0 91.51 L0 74.5 Z" class="st4"/>
			<path d="M0 74.5 L0 91.51" class="st5"/>
		</g>
		<g id="shape15-31" v:mID="15" v:groupContext="shape" transform="translate(170.578,-63.1607)">
			<title>Sheet.15</title>
			<path d="M0 74.5 L0 91.51 L0 74.5 Z" class="st4"/>
			<path d="M0 74.5 L0 91.51" class="st5"/>
		</g>
		<g id="shape16-34" v:mID="16" v:groupContext="shape" transform="translate(181.916,-63.1607)">
			<title>Sheet.16</title>
			<path d="M0 74.5 L0 91.51 L0 74.5 Z" class="st4"/>
			<path d="M0 74.5 L0 91.51" class="st5"/>
		</g>
		<g id="shape17-37" v:mID="17" v:groupContext="shape" transform="translate(193.255,-63.1607)">
			<title>Sheet.17</title>
			<path d="M0 74.5 L0 91.51 L0 74.5 Z" class="st4"/>
			<path d="M0 74.5 L0 91.51" class="st5"/>
		</g>
		<g id="shape18-40" v:mID="18" v:groupContext="shape" transform="translate(204.593,-63.1607)">
			<title>Sheet.18</title>
			<path d="M0 74.5 L0 91.51 L0 74.5 Z" class="st4"/>
			<path d="M0 74.5 L0 91.51" class="st5"/>
		</g>
		<g id="group19-43" transform="translate(125.224,-0.799997)" v:mID="19" v:groupContext="group">
			<title>Sheet.19</title>
			<g id="shape20-44" v:mID="20" v:groupContext="shape">
				<title>Sheet.20</title>
				<rect x="0" y="74.5006" width="90.7084" height="17.0078" class="st2"/>
			</g>
			<g id="shape21-46" v:mID="21" v:groupContext="shape">
				<title>Sheet.21</title>
				<rect x="0" y="74.5006" width="90.7084" height="17.0078" class="st3"/>
			</g>
		</g>
		<g id="shape22-48" v:mID="22" v:groupContext="shape" transform="translate(136.563,-0.798697)">
			<title>Sheet.22</title>
			<path d="M0 74.5 L0 91.51 L0 74.5 Z" class="st4"/>
			<path d="M0 74.5 L0 91.51" class="st5"/>
		</g>
		<g id="shape23-51" v:mID="23" v:groupContext="shape" transform="translate(147.902,-0.798697)">
			<title>Sheet.23</title>
			<path d="M0 74.5 L0 91.51 L0 74.5 Z" class="st4"/>
			<path d="M0 74.5 L0 91.51" class="st5"/>
		</g>
		<g id="shape24-54" v:mID="24" v:groupContext="shape" transform="translate(159.239,-0.798697)">
			<title>Sheet.24</title>
			<path d="M0 74.5 L0 91.51 L0 74.5 Z" class="st4"/>
			<path d="M0 74.5 L0 91.51" class="st5"/>
		</g>
		<g id="shape25-57" v:mID="25" v:groupContext="shape" transform="translate(170.578,-0.798697)">
			<title>Sheet.25</title>
			<path d="M0 74.5 L0 91.51 L0 74.5 Z" class="st4"/>
			<path d="M0 74.5 L0 91.51" class="st5"/>
		</g>
		<g id="shape26-60" v:mID="26" v:groupContext="shape" transform="translate(181.916,-0.798697)">
			<title>Sheet.26</title>
			<path d="M0 74.5 L0 91.51 L0 74.5 Z" class="st4"/>
			<path d="M0 74.5 L0 91.51" class="st5"/>
		</g>
		<g id="shape27-63" v:mID="27" v:groupContext="shape" transform="translate(193.255,-0.798697)">
			<title>Sheet.27</title>
			<path d="M0 74.5 L0 91.51 L0 74.5 Z" class="st4"/>
			<path d="M0 74.5 L0 91.51" class="st5"/>
		</g>
		<g id="shape28-66" v:mID="28" v:groupContext="shape" transform="translate(204.593,-0.798697)">
			<title>Sheet.28</title>
			<path d="M0 74.5 L0 91.51 L0 74.5 Z" class="st4"/>
			<path d="M0 74.5 L0 91.51" class="st5"/>
		</g>
		<g id="shape29-69" v:mID="29" v:groupContext="shape" transform="translate(17.4818,-80.1698)">
			<title>Sheet.29</title>
			<desc>7</desc>
			<v:userDefs/>
			<v:textBlock v:margins="rect(0,0,0,0)" v:tabSpace="42.5196"/>
			<v:textRect cx="5.69498" cy="85.8391" width="11.39" height="11.3386"/>
			<text x="3.47" y="88.24" class="st1" v:langID="1033"><v:paragraph v:horizAlign="1"/><v:tabList/>7</text>		</g>
		<g id="shape30-71" v:mID="30" v:groupContext="shape" transform="translate(28.8204,-80.1698)">
			<title>Sheet.30</title>
			<desc>6</desc>
			<v:userDefs/>
			<v:textBlock v:margins="rect(0,0,0,0)" v:tabSpace="42.5196"/>
			<v:textRect cx="5.69498" cy="85.8391" width="11.39" height="11.3386"/>
			<text x="3.47" y="88.24" class="st1" v:langID="1033"><v:paragraph v:horizAlign="1"/><v:tabList/>6</text>		</g>
		<g id="shape31-73" v:mID="31" v:groupContext="shape" transform="translate(40.1588,-80.1698)">
			<title>Sheet.31</title>
			<desc>5</desc>
			<v:userDefs/>
			<v:textBlock v:margins="rect(0,0,0,0)" v:tabSpace="42.5196"/>
			<v:textRect cx="5.69498" cy="85.8391" width="11.39" height="11.3386"/>
			<text x="3.47" y="88.24" class="st1" v:langID="1033"><v:paragraph v:horizAlign="1"/><v:tabList/>5</text>		</g>
		<g id="shape32-75" v:mID="32" v:groupContext="shape" transform="translate(51.4974,-80.1698)">
			<title>Sheet.32</title>
			<desc>4</desc>
			<v:userDefs/>
			<v:textBlock v:margins="rect(0,0,0,0)" v:tabSpace="42.5196"/>
			<v:textRect cx="5.69498" cy="85.8391" width="11.39" height="11.3386"/>
			<text x="3.47" y="88.24" class="st1" v:langID="1033"><v:paragraph v:horizAlign="1"/><v:tabList/>4</text>		</g>
		<g id="shape33-77" v:mID="33" v:groupContext="shape" transform="translate(62.8359,-80.1698)">
			<title>Sheet.33</title>
			<desc>3</desc>
			<v:userDefs/>
			<v:textBlock v:margins="rect(0,0,0,0)" v:tabSpace="42.5196"/>
			<v:textRect cx="5.69498" cy="85.8391" width="11.39" height="11.3386"/>
			<text x="3.47" y="88.24" class="st1" v:langID="1033"><v:paragraph v:horizAlign="1"/><v:tabList/>3</text>		</g>
		<g id="shape34-79" v:mID="34" v:groupContext="shape" transform="translate(74.1745,-80.1698)">
			<title>Sheet.34</title>
			<desc>2</desc>
			<v:userDefs/>
			<v:textBlock v:margins="rect(0,0,0,0)" v:tabSpace="42.5196"/>
			<v:textRect cx="5.69498" cy="85.8391" width="11.39" height="11.3386"/>
			<text x="3.47" y="88.24" class="st1" v:langID="1033"><v:paragraph v:horizAlign="1"/><v:tabList/>2</text>		</g>
		<g id="shape35-81" v:mID="35" v:groupContext="shape" transform="translate(85.5131,-80.1698)">
			<title>Sheet.35</title>
			<desc>1</desc>
			<v:userDefs/>
			<v:textBlock v:margins="rect(0,0,0,0)" v:tabSpace="42.5196"/>
			<v:textRect cx="5.69498" cy="85.8391" width="11.39" height="11.3386"/>
			<text x="3.47" y="88.24" class="st1" v:langID="1033"><v:paragraph v:horizAlign="1"/><v:tabList/>1</text>		</g>
		<g id="shape36-83" v:mID="36" v:groupContext="shape" transform="translate(96.8516,-80.1698)">
			<title>Sheet.36</title>
			<desc>0</desc>
			<v:userDefs/>
			<v:textBlock v:margins="rect(0,0,0,0)" v:tabSpace="42.5196"/>
			<v:textRect cx="5.69498" cy="85.8391" width="11.39" height="11.3386"/>
			<text x="3.47" y="88.24" class="st1" v:langID="1033"><v:paragraph v:horizAlign="1"/><v:tabList/>0</text>		</g>
		<g id="group37-85" transform="translate(17.5078,-63.162)" v:mID="37" v:groupContext="group">
			<title>Sheet.37</title>
			<g id="shape38-86" v:mID="38" v:groupContext="shape">
				<title>Sheet.38</title>
				<rect x="0" y="74.5006" width="90.7084" height="17.0078" class="st2"/>
			</g>
			<g id="shape39-88" v:mID="39" v:groupContext="shape">
				<title>Sheet.39</title>
				<rect x="0" y="74.5006" width="90.7084" height="17.0078" class="st3"/>
			</g>
		</g>
		<g id="shape40-90" v:mID="40" v:groupContext="shape" transform="translate(28.8464,-63.1607)">
			<title>Sheet.40</title>
			<path d="M0 74.5 L0 91.51 L0 74.5 Z" class="st4"/>
			<path d="M0 74.5 L0 91.51" class="st5"/>
		</g>
		<g id="shape41-93" v:mID="41" v:groupContext="shape" transform="translate(40.1849,-63.1607)">
			<title>Sheet.41</title>
			<path d="M0 74.5 L0 91.51 L0 74.5 Z" class="st4"/>
			<path d="M0 74.5 L0 91.51" class="st5"/>
		</g>
		<g id="shape42-96" v:mID="42" v:groupContext="shape" transform="translate(51.5234,-63.1607)">
			<title>Sheet.42</title>
			<path d="M0 74.5 L0 91.51 L0 74.5 Z" class="st4"/>
			<path d="M0 74.5 L0 91.51" class="st5"/>
		</g>
		<g id="shape43-99" v:mID="43" v:groupContext="shape" transform="translate(62.862,-63.1607)">
			<title>Sheet.43</title>
			<path d="M0 74.5 L0 91.51 L0 74.5 Z" class="st4"/>
			<path d="M0 74.5 L0 91.51" class="st5"/>
		</g>
		<g id="shape44-102" v:mID="44" v:groupContext="shape" transform="translate(74.2006,-63.1607)">
			<title>Sheet.44</title>
			<path d="M0 74.5 L0 91.51 L0 74.5 Z" class="st4"/>
			<path d="M0 74.5 L0 91.51" class="st5"/>
		</g>
		<g id="shape45-105" v:mID="45" v:groupContext="shape" transform="translate(85.5391,-63.1607)">
			<title>Sheet.45</title>
			<path d="M0 74.5 L0 91.51 L0 74.5 Z" class="st4"/>
			<path d="M0 74.5 L0 91.51" class="st5"/>
		</g>
		<g id="shape46-108" v:mID="46" v:groupContext="shape" transform="translate(96.8777,-63.1607)">
			<title>Sheet.46</title>
			<path d="M0 74.5 L0 91.51 L0 74.5 Z" class="st4"/>
			<path d="M0 74.5 L0 91.51" class="st5"/>
		</g>
		<g id="shape47-111" v:mID="47" v:groupContext="shape" transform="translate(0.499998,-65.9967)">
			<title>Sheet.47</title>
			<desc>Vm</desc>
			<v:userDefs/>
			<v:textBlock v:margins="rect(0.999997,1.99999,0.999997,0.999997)" v:tabSpace="42.5196"/>
			<v:textRect cx="8.50358" cy="85.8391" width="17.01" height="11.3386"/>
			<rect x="0" y="80.1698" width="17.0078" height="11.3386" class="st6"/>
			<text x="3.01" y="88.24" class="st1" v:langID="1033"><v:paragraph v:horizAlign="2"/><v:tabList/>Vm</text>		</g>
		<g id="shape48-114" v:mID="48" v:groupContext="shape" transform="translate(108.217,-65.9967)">
			<title>Sheet.48</title>
			<desc>Vn</desc>
			<v:userDefs/>
			<v:textBlock v:margins="rect(0.999997,1.99999,0.999997,0)" v:tabSpace="42.5196"/>
			<v:textRect cx="8.50358" cy="85.8391" width="17.01" height="11.3386"/>
			<rect x="0" y="80.1698" width="17.0078" height="11.3386" class="st6"/>
			<text x="5.22" y="88.24" class="st1" v:langID="1033"><v:paragraph v:horizAlign="2"/><v:tabList/>Vn</text>		</g>
		<g id="shape49-117" v:mID="49" v:groupContext="shape" transform="translate(108.217,-3.63464)">
			<title>Sheet.49</title>
			<desc>Vd</desc>
			<v:userDefs/>
			<v:textBlock v:margins="rect(0.999997,1.99999,0.999997,0.999997)" v:tabSpace="42.5196"/>
			<v:textRect cx="8.50358" cy="85.8391" width="17.01" height="11.3386"/>
			<rect x="0" y="80.1698" width="17.0078" height="11.3386" class="st6"/>
			<text x="5.22" y="88.24" class="st1" v:langID="1033"><v:paragraph v:horizAlign="2"/><v:tabList/>Vd</text>		</g>
		<g id="shape50-120" v:mID="50" v:groupContext="shape" transform="translate(70.0993,142.094) rotate(-138.366)">
			<title>Signal 1</title>
			<path d="M0 91.51 L4.24 91.51 L4.6 91.51 L68.27 91.51" class="st7"/>
		</g>
		<g id="shape51-126" v:mID="51" v:groupContext="shape" transform="translate(81.4378,142.094) rotate(-138.366)">
			<title>Signal 1.4</title>
			<path d="M0 91.51 L4.24 91.51 L4.6 91.51 L68.27 91.51" class="st7"/>
		</g>
		<g id="shape52-131" v:mID="52" v:groupContext="shape" transform="translate(92.7764,142.094) rotate(-138.366)">
			<title>Signal 1.5</title>
			<path d="M0 91.51 L4.24 91.51 L4.6 91.51 L68.27 91.51" class="st7"/>
		</g>
		<g id="shape53-136" v:mID="53" v:groupContext="shape" transform="translate(91.7032,128.605) rotate(-126.87)">
			<title>Signal 1.6</title>
			<path d="M0 91.51 L4.24 91.51 L4.6 91.51 L56.69 91.51" class="st7"/>
		</g>
		<g id="shape54-141" v:mID="54" v:groupContext="shape" transform="translate(103.042,128.605) rotate(-126.87)">
			<title>Signal 1.7</title>
			<path d="M0 91.51 L4.24 91.51 L4.6 91.51 L56.69 91.51" class="st7"/>
		</g>
		<g id="shape55-146" v:mID="55" v:groupContext="shape" transform="translate(114.381,128.605) rotate(-126.87)">
			<title>Signal 1.8</title>
			<path d="M0 91.51 L4.24 91.51 L4.6 91.51 L56.69 91.51" class="st7"/>
		</g>
		<g id="shape56-151" v:mID="56" v:groupContext="shape" transform="translate(125.719,128.605) rotate(-126.87)">
			<title>Signal 1.9</title>
			<path d="M0 91.51 L4.24 91.51 L4.6 91.51 L56.69 91.51" class="st7"/>
		</g>
		<g id="shape57-156" v:mID="57" v:groupContext="shape" transform="translate(137.058,128.605) rotate(-126.87)">
			<title>Signal 1.10</title>
			<path d="M0 91.51 L4.24 91.51 L4.6 91.51 L56.69 91.51" class="st7"/>
		</g>
	</g>
</svg>
